<mxfile host="app.diagrams.net" modified="2020-07-13T02:51:44.010Z" agent="5.0 (Macintosh; Intel Mac OS X 10_15_5) AppleWebKit/537.36 (KHTML, like Gecko) Chrome/83.0.4103.116 Safari/537.36" etag="vIMmFqTDVqANlF65Hn-W" version="13.4.2" type="github">
  <diagram id="t7fxGiA3r8HVsxQQ1H9n" name="Page-1">
    <mxGraphModel dx="2066" dy="1154" grid="1" gridSize="10" guides="1" tooltips="1" connect="1" arrows="1" fold="1" page="1" pageScale="1" pageWidth="827" pageHeight="1169" math="0" shadow="0">
      <root>
        <mxCell id="0" />
        <mxCell id="1" parent="0" />
        <mxCell id="XVJSLa_-UN0Uxd0v42_F-4" style="edgeStyle=orthogonalEdgeStyle;rounded=0;orthogonalLoop=1;jettySize=auto;html=1;entryX=0.5;entryY=0;entryDx=0;entryDy=0;shape=flexArrow;fillColor=#e1d5e7;strokeColor=#9673a6;" edge="1" parent="1" source="XVJSLa_-UN0Uxd0v42_F-1" target="XVJSLa_-UN0Uxd0v42_F-2">
          <mxGeometry relative="1" as="geometry">
            <Array as="points">
              <mxPoint x="130" y="310" />
              <mxPoint x="130" y="310" />
            </Array>
          </mxGeometry>
        </mxCell>
        <mxCell id="XVJSLa_-UN0Uxd0v42_F-1" value="" style="shape=image;verticalLabelPosition=bottom;labelBackgroundColor=#ffffff;verticalAlign=top;aspect=fixed;imageAspect=0;image=data:image/png,iVBORw0KGgoAAAANSUhEUgAAAP0AAABkCAYAAABNXDZ3AAAgAElEQVR4Aey955ccR5InyL/ivtztvN17u3O7szP7dudubrqne9jkNFV3UzSbGhQgKEABrbVWhNaKJDRAaK1BaKBQWmuZlSVS68yQWX2/e+YenuERmVkFkD3f+kM8j3BzMzc3NzM3FxHxlGHqMLMGv4Z0aFkVxpABI6vDNHVkh7LQsgY004Bu6NCTcUR6Ygj5VGi6DsKnSze13D3hivz8lNNmOETPNGCYKjKxOLz1XvTU9GGgM4ZUxrRgblpU3p1Hz3b9mpmFaSpQQzEEvUkk0wZM07TwOL6DXwe9YvRFnU54Ph0n3MmrwdpkZrMws2ZO7qIM9YO4p1TPGMj0GUiTrDWSG7XBgJExkfHoSPfrMK0+MEnmI8jdTV+ui/B1xUDao0Hx66w+ncnFlisv737WoRkij/Mvy8SGkfyc7ZPr5/ePD5frIFzSzZ9C/8n4EzpQLLX5d/OX39afxm9hOpwfLgOZN5sfGe8pMjph9EZWgxKLITwQRTKTRtIfQ8QXg2pwZdUNDaGGWpyafRI/fFcPRbWMlhRGNhzXMzdswYwweq4orH4zg76qFuz9cjtWvrEOS0YfQmVjEGrOUGWFLtAQofBUr6FBMbPQklG0Hr2BHTOuoL7Gzw2GGQXHlzuFGQM5OXJ+Q9wYSUjCSGSDysnKam+OTs7gSFZa7pKFTXRUzUSmT2eGbOhyW3g/UHmBH21LoXNDGPU7eqFGVJgGGb2KSFsS7evDqN/Zi3RYYY6C82q3jdMgmWuWM7DpizaIlPGY1RFpTaJlZQAd+31IhTI5PngbiLbFr9VWXqfUrwKek53dPrku+34kuKBtD0zEi12vjS/nF6L/l4BzOci8FK9frk/g5eRHumPpmw2jtkr0HgPuxLVlxfKHwX+KCtCITqmmpNF25j6OrLqG9g4P7my/jpPbHyCSUKAZOjRTQ6K3Hde3XMWVky3M6FXLkHQyOIoIsiq0IR1qVoGe5QpJkQI3fIOXGdIYjMqaWY2Nykl/FK03anF92WlMfXELbpd4kTat0T6rsUhDo7IUiTB+KQKhyMSqgwRG9QypUIZ06OlB1Gz7AfPfPoyye14rEtCgUzQzpDE8KkuOjo2QbkVmjovT5J2hsjax9lplqU2svcQTa4fK2pXJZqCYGWTMNI+cTOLbYPipjIKWLT7Uft+OdCIFJVeGG6VG/GcJN4VgQxxN8/woXdyJdEBBlpxZNoOYL4m2g340HvMiE+P8E33ih/pBNan+NDJmhtVJ8mLO1Yro5Pby6IDz5quKom76IBrWe5EMEW8ZxovoW+pP6lfNzLA+4DTFKG8NAJYucbrcgTEdE3VbCi/gvC9lQ7IcvCXjYvCcsxX1yc6AcF34ggdGT4LLdHLORIKL+h1pEbiMz+gW4CFHp6BRSob7GPAcLUkGubxh8J+isJ2UOkujaiqBkpXnsGXKdXia23Fy6kkcWVeOVNKAriQR6w7CW92PvvI4Ah4NOosAiFETWiSJeG8cUW8KgQY/vLUhhAZIQUxrlDWZc9HjKURaiI4ffY0xxEPkTKhMFroRQ+fVUix9dSfuPupDOktGbzJF1lMZJHvjCAepXhNZg8L3KMK9KaTT3JmYuopUbxB9tQH013lRsekcFn94GhUPvDBNFaapQYuQMfnRW+3HYEcSqTTRtzws6yTb21LdtsMio+cXOR8aQbPZLLRQFkq/CT1lwDBUaBEDyUYD8TIdiWodSr8BXTNh6iZSXRqCP6bRPiuK2tn9CN9SEa/UWJiu06hPTjNmMvxEFZXNoGNhFFXLPUgFMjBUA+luHbFyFdF7GpLNGjSFogrehyxVssh0GohXWPUPGqCIghSSohhmDJLSckU1mKMI1kTROMuHzo1RxMo0xKt0pNp1aBkDWcOAFjSg9JkwrakXiyaGVGhM6TgPstJRXUL5Wf2ynAUPVpqDy/mSg3DDBd1ce4TRy/iue9ZWV55Mh8GlOnO0Bc5wMGFkVlmZbjE6OX6K0M3BRf3u1I3nei6G/5RKo4OuIu6LYrCxAyenHMW2GTfQfPEuvvvyKI7vqIdvII1Ivxc3t5zEsrdWYtH7h3HxaBsyGg+naS7Re6cKR2ccwvcLL+Lbcbux8p1t+H7VPXi9SUspdWQiUTSfuoddn2/H4rc3YNVnB3HpSD1iCW7ImhZD69kHWPTKDtwp8SLD1hH4aB9s8+DiohM4vr8J0STNawNoPvUjds+7grbWIAxNQbTNg3PzDmDJ25uxYex32P/5bsx77wQqHvbD0NNQQhE82nsTGz/aiMVvrceaccdQctODRIqvV3CFlY2eRnLufXVTtcJdMiITWshAvFFBz8EoOvb7EelKQk3r8J6KomZOH6qn9aFmZi/aD/ez0FxNqGj7vh8VU/vQPDWG2klB1Ez3oXJOHzrODkDN6FBSGrznYqia04+qGX1oXxpF1+w4Kpf1IBlQkI4qaD/gQ9XMPtTO9KF5Tx8yUcWaz2ZhaCZC5Sk0r/CjZsYAqmcOoGWnDymvCkOndQS7bTnjJEUxDDaqB2qiaJrlQ8eiBFqWBVE9cxDVC/sQrExCTWkYvBFD284gAjfTyHhpkODOhKZ2mikiMGm0sqYqtlyL1E88WI7LwRfLF/ScToUZlQMuaIjyhdL8+p108uHF+RmevpNuobLyNOWnwUfirVh/P0UjWdrfhx83nMaqV5dhytPzMfG3KzH/+UUY/+v5mPzKbmxcXY6GjhA8DZ14uPMkVry6BRsXlSCh6DB0BbquofXYTSz/7RxMG3UY96824Pb6E1j5p+04sL2WG3UqgvoDV7H45XXYMOMCrh0pwZUtt3B5TwUCwTQf0fUY2s49xGI20vcjRYpkULiqoa+8Cd+9sx7rFpciENehp/pRsfkYZr25D5UVfYh7enFt5l7Mfm07jmy5gytrTmLFi4sx/rXDqKkIQIkEUbn1Ala8/z32r7uJO0fv4Mj0vVg15gTK7vVB1a0w1TJymn+T0LIsbOedoqdMJLs19F2Oo311GE0zw6iePoC2vf1I+jIYuBtD0/QAKhd0ofuUj82NPedCSPtVNkqHmhPoPh9C84wQymd60HclioH7UUS7kjBUHX2XI2iY5kfFvB50HAygaUEAzVNCqF7Wg3RIhaboiLSl0H7Ij7qpgyhd2IGUj09vyCmFGpJonudHxbRedOwLoHGtDzVTBtGyZQBKiBwrtcOasohRg9Z0TJOF7YHGOJqm+1A32YeWLX60bfejenIfahZ7kehNw/cohvpFg6ibGkDLghC690UQrk5DCfBogpQwN7pY90L52VoJRRqijJSyPFpLeQI40ZWVmu6HxS8Cz/FXBM4My9IFUZ87pZHcXb/MnyjPaEntzrra+6RwVifx7XLm4pnoizKCNqVPaVkTWjqK9vu1ODn+Oyx9cycOrbmI7e/twOL39uHCvnLcv92HwSh5cgPhmnoc/vQwti2vRCLDjZLC/PZT97Dx1Y3YsbIMKcVEvK0ZR7/ci9Uz7sAXUBFubcOpcTsx+70f0NGQZKOSGlYR8aaQUUgRszAso6eR/u4jMnqNjUKqqcNX3YYjo3di08pKhBIGjPQA6rafwtIPTqGuuh/9ZTXY9Noq7F5xH+GwjkiLB8c/2Ypprx9BVdkAgu0d2DtqDbZPvIauh2H4mkNoOVqDZa/txqGdFYhlaLQSaw/yHJhGQh1K0ID/fBpNK8J4ML0dFfM96N4ZR/BqBpkeHWpaRc8pP5qn+NG7OYFMpwnVZ0ILZmFkdDYfpw5IBVS0zQ+hYlk3lLAG08gia2ShqzraNgRQOakXgVspGLEheH+IonFKAFVLe5AJ0kJeltGJNGXQuTCK2mVey+iJbxWesyFUTvSie08YWtBEolVD++IwHkxuQ7w9DdOwRkuhJMLBCaOnNYQZPtTM9CJWoyLl0dC1OoyyyV0I1cbZ1CNapqL/SBINqwbxaEY7qub2oWdnEvF6la3+c4WzRkwR3luKLpSRhbs0Slv1kyI6lFPki7QAnBmrBBeGx5Rb5IvUqqtQ/cLoh8UnOuKS+Rb0LZhM38GfKCciE+vZpF0ymd4TwnM8DUff4o3VY9F/ylTiSPUGEKj34daSs9jx9VnU/diBExNPYe+cOxjoSUPRsnzebijwlz3E9x/twY4VZaBFKTIITdfQduIutr77PY4faUdS15AeaMTF6fvwzcSb6BtU4LlVht1vb8GmZZVIZWjUoUUvvqBn0uhD6wNaFO3nHmDxK7tw51EfUswIs8wYB6tacfCjHdi0ooIZvZ4eQO2241jywQnUVXvQef0Blry8EVcutSFBRhodRPWaY1j83gmUl/aiv7waK3+/DF++vBbzP9qAJR+txop3F2PWS0txcHcpwinaljTZOgXjh+0ccCPRdR39pRFUTO9lI2/PqgSC1xVokSw0WlugxS1DRaguibp5Ptyb0Iy6VQPwHIoh0aCyMDhr8nlz3JdC81wfShe3IRlMQjdoUUxDJqGgdXEQJdM7kOhLM5rByjha5gRYeJ8J2iN6oD6OtgUh1CzrRdLHw3vaeur6NoTSCd3wl8WgmQoUVUHH7iAejG9FqCaRW/0X4bhKUxaDFnJNNqf305x+xiAa1/Yj4U8jnVbQuTeI0kmdCJQnWAhP6xqmZiLZoKF/TxJdsxKomkiLpj3MifEw3Q5Xc0b1hOG7rKT83nJYluLadO263HUXpiGXtxca7Tqc8Hwaw8EtI3ZMa4qXzzkJYeyudCT4SLwVw38qPdiCB1uPYNv7azD33xZi/LPLsPSPKzDtmcWY8OJ67NlwD54AD79Jscno93y0F1tXlPORnhbHdBXtZPSjvsfRox1I06JVX7PD6LtvlGLnW1uw45tqpGlkNxW+cp/V2CIRGb2mR9F29iEWvfot7pbxkZ52DWihbbCmFYdH78TWFTTS8/CeRvpF75PRe9F+5R4W/2EzblzpYhGCGvejfsspLH7/FCpKvfCWlGHVH1Zix9zLuHOyHPdOlOLByTJUXm1Ab1cMGdoHp5HQ4OEubY+R8bNtMkNHrCOFjg0hNEwLompmL1q2DiJ4J8UW57S45bQUA8HSFDp3hdG8OIyG6SE0LB1AuC7ODIV2GuKDabTOC6JsaRcS4RQzNlo3yCRUZvSPZnYiOcBX/wM1cbTND7KFvHQgwxbMFFMBGX3r/BCqlnkYPXI8tIjXtTuIRxN7EKxMQDHSUDUNnd8FcX98OwJVMWRpxDSF87CiGmv0p5V6mtM3zvShZdMgkn4FSlpD154gHk3uYo7EUAwoPh2JBg2eYxHULO5F7dR+NMwJovdiBFrSWjCkSEIsbEmjtFBCSh/nIqUuVs4Ncz8Xw3Pnu/Hcz3L54WByObofrqwb5n520yr27MZzPxfDe0qPDaDjbhkuzf0Oy1/fhvWTzuDQJ1uw4LXt2LP+Hh7e7EAoQVtcJhRTQ7C6HPvHHMCObyqRUmhFnBYCaaS/gy2jvsexo51IkdF7G3Bx+l420vcPKvBVN+DIxzuw4qsb8PkprM3AUGiEsw6eGAZUPYaO8w+x+OUduHm3D2mDtvRoBM7CV9uCY2N2YsOCR/DHNaSDXtxbdAAL3j2Gupo+eO5VYO2r63DiYCOSuoF0YBB35x7A3LePo6ysH766Jmx7Yy32ri1DPKohSwtbigklzg+isIMvIvy1Ig975DDYdCTTb8B/L42WXX7UzhtEw4wAmheF0Xs2CjVC24RZGAkTejSLRLOK9tUh1E4ZQNuxAegK38akuX/LvAAqFnUh6U8ymbJdgrSKtlUBlE7tRqwtBdVQ0H8riubpfj6nD6rQaMHNSCPYGEfbwhCqV/QiMZhi0QY55O7DQZRP9MJ7Low07Xb4M2hbHcD9Ce0INybZ7gXt82tJHck2DclOjR0AonbSNl+giht960YfN/qUju69IZRO7kSgMoZocxrtm0Jonh1G/cxB1H/TD+/pMA/tE/zgEDvTIEYsto1rbylSXzpCUhF6ijnxE8ApSnTTGo5+zglJdVKeTGckfHd97mcZX6brLieeWXjv4kfAKB0JLpctdF8M/6msqWJIM9B2+AH2TLyMstu9KFl2DTum3UIgQnPIP7NFNiWSRqg1iPbzj7Dzne+xZeY9eOsjCPdnkMroaD16C1vf+R4/HOngRt9bh3OT92D5Vz+if1CFGgng0cbTmPe7NTi+qRydJf2oPd+BB2fbEYpQiEoKraD3XjU2vrYGuxfeQnNJAINdaaRVE1FPD67P+B6LRh1DY4kfXbcasPvNlZj66gHU1/oR7ujC8a92YN3XZ9FW7kPnjXpsf30lJrx8EJVlfiT9PtxYdACzX92EU9vL0PmwF3VnG3F+60M01w1AZ6fdKBSzQzR2b50LoFGazh9ks0PQw1lEyzT0H0qgYckgajf2INqRRKgyhb4f4gj/qCB6X0X3ygRqp/vRfSnAFuHopGM6pqBpiQ/VU/sQvJRBolZjoydtx/UcC6F6aj969yQQr1TRtSmC5ikB1Cz1gEZ6NWQg0azBfyGD7jkJNM8PIHpfQbqTrykMPoqgdno/6uf6EbykoG9/Eg3TA6iihcBBhRk9TUV8lRHULwygemkvEh6FRTM0HaBogBbymtcNIulToaZ0dH0bRtmkHgRK4/BejaJqYQ/aNoYQuqKwdQsK9UnZc0rODL7ASJ9bqCsyyltwoiUukr+4FwuB4tk9qrGy0sKVKOdIC8AddNjCmlSnxAvRcfDjgrF6JPoOuq6yOTpW+dyzqxxrsztPenbjuZ+L4bMTeWo6hXtbzuLbORfQ0tiNc/NPYe/qh4iptJVlwtA1NF4vxZYv12LpG/Mw+Tez8cULK7Hgo43Yt/EafKEk2s7exeaPduPkiVZk9CxSA604PWcvVk+9Ar8/DVPPINrSiUuLjmPen9Zh7lvfYMF723Bo00MEwnT6i2+bpQf7cfebU5j1hxWY8fZmfLv2NvyBNLRUBF0XS7DirU2Y+/4m7Ji8G9s+3ITZow6ioc4HPZVEz5UqbP5kFxZ8uBEbP9uA1W+uxfR3D6GqfACGmkSwtgMnph/CvNdXY+5by7HwjW+wftxx1FcO5LYVqbPyL74vT7sIfAtPY3N4I2OwuW2kMgOacw/ei6Jyvgd3JtXj7uQGlEzuRMuOIFK9GnSdr1wbug7PiTDKpnlwb1ID7syrR+uVHhYJJD0qOjeHcX9qG+7ObkDl7F7UT/WhfHUH0qE0BsvCuDGvGnemNOHh152481Uz7k5vwIMNDUj60lBjOnp/iKJiai/uT27Gg4ntqJk/gMDDFAyFH8JSTQXeewE8muTB3SktiLbRAp/J1gAC9VFUzPagfmsvUkENKoX3hwO4PaURwaoEkm06ouUKVJ9YradDUwrbXREycx8Ftefe3GhEufz0yeA2Xbm/ZIct54v7fLiTTj48n09Bq1Bq4zvpFipr7XQU1DdenjuawriPw1cx/Kd0k1bNVfhbBuFpCiCdSGCgfgD9XXHrTDXfJw+0evHo5CPcPV6O8nO1eHS6Crd/eISa+91IpFUk+4PoLu/FwECaHTLJKjEMNPSiqz4IJUOMm8jSKTV/CE03GnH/WDnKLjWhpyMOhfb7rRNt2WwGKV8IdVdrcfd4FWrue5FM8e00LZlET0kH7p+oRNWtVnjrBtBaMYh4nE7E0QGiNPqqOhm87FIDOst70VrpQzRMoxw/nJPs9aH+Si3uHS/Do3P16KgdRDJB9HmH8YMuxC9NK/gqPp26E/m0xUmhFPFLe9Mmnf4b4uWViM4MzHMqhJ4TEfhuJZDx08qvydcK2AlEHVrUQPBhGp6TYXSfDiPYmGBzfp0igQEFA1ej8JwMwX8niWipinBTmh3CiXen0XU6iO4TUQycS6DvbALdxyPw3AhBi/FFKTVhIPgoBe/pCLwXooi1qGxqwtYq2Iissp2AwN0U/I8SUBKcd4NO28U0hCvSiLdm2Eo8LdImu2nxNgGFjgFTKDrEF/5o8Y/tBlhHtO2wXig+pe77Qs+iXKHU4o3RccPdMPezu3yxZzee+1nGGw4ml6P74cpymIgeipW14W7a4tldh/O5GD47hkuVsk5kL4LwxSs6bUZIHJHDmeLQApd1sZNeFAmw0IfKZLlxsGfaYqJFMSuPCcHaK6ZRj8JChivD7dVU2p7K1WOFeWR4DEenRTaTnYgjPkVYQ96VjqrS4RmGy168oZN+1ijL2skP1+i0cMdGX+uor/uoqvXMOoSUnfgX8hBbUewYMJ3Ss/b4iT/NYPNkPW2wvXka+bjXJ1lyOmw0pCgqwy+DeKFIx3IeFOrrGZM5Agqf6WANayO1QzHAaNNiqGIyGlQn23Fg9Pn6A6NNZXRasOPKwPqSylC/EA7RtgyT82blabSLYbWZZEnl2OlI2ra1ji4zmlYZib7QGZGyuSnJjUJZKfwV8Fz6hPAcXatPGJ3h6Ase5PKWA3fw4ILnYI+TL9VfkD8XDXkfvVA9I8EL4ch5xfBzRk+jljhVJd9zL0R72PzUFYPR+XqTjtjyi8rQuXyOb43KLBSmLTnnSS1SQNoqUg1ajaaVZBsuFI3OenMeBH1BU+SL+nkqeBRbUWz+zXiz4SLcovCc12/xb1D9wmi5cQh6lAqe5Dw5X9BleaYGCp/ZmXUjzVJqhyhDhkX0KI+dj5fKMPps0ZJeGOKr9/zsO7WBy4iiC5s2na3ndRAtwR/VZZfJsLP/3OjtcFKUIV4Fbzb/HEfIhIXvbHeAZCQO+MjGLmQkjz423KZfGC745s6Hyti4znsnvk1XLj8cPpXLhzvp5MOdPMh1Fbq38Z10C5W1+6NYHWTAxWCPk18M/ykmCDGSWR6bvJRN1FpxlTvDAbeZ55XY0YGg4ay8AD2ZNnWMiz6jY+U5aUl85nAK4Esjs+DJmcrCle8l+jkenXDWuVS3XL9VVhgbhznlwmA5HKpHgjvyBQ/DwZ082bwI3MejL2TCnJPDEXJ8AS+cEg8uPli0JBxqYbhN68nghY0qv36bfuE2OOmMhC/Ls9C9je+kW6isbTdOHu2yRXU9p4t22UI0iuHbRp9TNMtoCj1THl0Uhop7ay+VV2p1nMC1Urlydi/gBZmXjFbGz+FI/FGeyBepcBoCZqV2J9gdIwQl81dIcUU5u422sBldURdrTz59gZerR/DqSIczaqqPQmSLtsBzyO8x8MXIIfBFavEtph/FjD7Hv6NeIQur710wp9yLyYa3b3jZO+nbdEX9gob87L7Pr99JJx/u7Hs3Pfezje+k6y7Hn4eX58hOYSTeitHPhfcOAg5lKMBwAbijkQXgNn3JqF0Kkisj4TvoWsqZK1cQ3xa8XM6mw+H2s7t9hfFtWk54Ph0nXMYr1gmizPBwyaiLtPvn4gs+KC3crmJtIxkSLB9u0ykMt+t8MrhNV+6//Ppt+oJHuby7nSPhO3GdtJ30C/PnxB++v/4djV6es9I9e7bmnqzzxYKONb8tBqdGPg4+U4wnoC9/2YTVbSkWvxfzSS7M4eCCP6GYgq6gY7eVd7zIF2kxuKBTDE74nAY3WkFPTkUZUgI5X9DkecPjU7t+Lr6oj1LRLsEbl9vw/FEZN/9ER/BfCP5T6efzx43OXb9NvzDc5q8wXNAjmcjyEfki5XC7/TJ/Ak/mhe7d/fWkcMHTcPRFGUGbUhbeM4/DRlfubUUYyfLFXHMEODucYXl7J77lsSx89pkoK0zl9J1wprwSnIxV5k98ZooaUwi/GFzwJ+A5uoKO4M9agS1K3wXP0RkGn9MyQaupeXRzo7YxLJz4Hg7/LwGX5Zlrl8Ufk9sw/BeDEx3WZpLbcPhPCM/n769v2ZGcZf2SV+8FjFI+p8+FZZbRi7mfZcTcy3OCzChzcO4dmQdnnVsIX5QRqRym8lHVZog/C+Vz0rXxbX4EvpzSvfzM8bjyCRhtY5Ey5pez80R97lTQcNMV5WQ45YmrULtF/byM3G6OJ8NlfJvm49OX8WW6hWk55UNl5HYJfJG64TZNTscNF3giLQYXdPLh+fyJMoVSkSfqs9Mn44/oCFpyKu7ddO1nu58EDXvQyodxvHx9ELiCrrteJ5zjU1m5PDN6UVBK2aglPecU18orALeFJy2uufGEwArgOxouwR10BX5BuoJfZwMFXZsOh9vPAk+khfEFHbcA8+kUw5eNTtTlTO1OdubzukfC//lwu43uuS7xQ+0q1rbicFs+Pw3f5smJb9OVZTUcf4JHuby7nSPhO3Ft3kS+jV+YP1GOp8P393BOwUknn4/h6fOFPDIyydBy9yKvGFwYn9gSk54ZIwXxpYU8ASe8QveCrqP+AviPAbc7geOzZ1GnhO/oiGJwKT9Hx8pj+AIu5MFSySgFXKRWuVzdIl+kbnxBtxhc5IvUje/IFwpkKyz1Ra5doi4xzaNngS9SN32BI+hYU6jh2kewPLigUwA/nz/JSARfIrV4zqMv8UdtKgTP6bGLVi7fou3Gd/An47raVNBgrfJ5/AhcmR7dy8+CH3na6oL/dfVeCDKXSsqfyxOGQakTzjrXUc4JtztVUmpHeZt2rpMLwkfC//lwm1f3CCjaXaxtxeG2fAj3yfFtnpz4Nl1bfsPTFzzK5d3tHI4/J57Nl5xv4xfmTy4rOZmC/T0yvDAPdh3F9OmvRp8ncLvjCgvVCc/vXCfcpjGSUY7UySPh/3y4zavbGEiRqF3F2lYcbsvnp+HbPDnxbbq2kg/Pn+BRLu9u53Dtc+LZfMn5Nn5h/uSyI/X3yPDCPNh1/NXocyfMeMcU7xS74woL1QnPp+OE2zRGMsqROnkk/J8Pt3l1GwMpErWrWNuKw235/DR8mycnvk3XVvLh+RM8yuXd7RyufU48my8538YvzJ9cdqT+HhlemAe7jqJGT4C8a6hAHq3Yi48dWPDcswwjerTlJso+Bn25LLuX6pdheXwWol0kz03H/SzTHg4ml6P74crmwaR2FaRTBJ6jU0DuDjpF8HNlXPAcXUtm8rN8n8P/CbJ103E/D0d7uLJumPt5OPVTEXUAACAASURBVLoyzI3nfh6urAxz3z8WnZ/Zn+463M9kh26+6LnwQh5720taIHAvFhSA831wy8sUgBND3DMZ/BgvhdUibxj6zGM64NzQGK2C+IXhNn8cnqMr+LBokVAcfI0Az9EZDp9NIQocoxX8M7j1pRRRn5w+Fv5I9EeGy+3OtcvijUZRJhuZLwf/heGMToGFOEf//QR4Hn/DLcRZPBfiX/BHbS8Ez/FJbRXtLZS68B38ifJCltazOM+So/uEcIZHtIajXwBe2OgFETkV93KnS0zmhCfDBQ6l4p5CRHEvUhlHvherqyPhPwbc5u8xjF5ql6PT5RVRi89c51ptcTgNQYelhY2C0bfKFVU6N76gK8vvpxiloGPRz/Eiyz1XZiT+JbjAEXR+glHneLFokWxk+eTkLuoSfUPPQi4itfJkfNGvOb1wGa2A51IXrVy+qM+F7+BPxi3Er5Qn083jV5ST6dG9/Cz4EfIoAC+8kCeIF0vdlbjPakudzRrhoCMZvSNfRALORuQ6JVfWnjfl0yYaheE2HQ63n6V6WR2F8e26nPB8Ok64jJfrxFxbnHUXg/M6JKUviP/z4Tav7rmukGvhtgn+Csnelg/hikNRznbzejlc5sF574TbdGVahfmz6eTDnXSG40+up9i9Td9Jt3D5Yv0t+B0JLsqJ1F1nMXzHiTxeSFYeIWjRGP5sE7PhvMJCcGqwjc+Oa1II7TAw+dlZv02X0yF8mZ6bjhMuhC06k2hzfDddQUfAnd5T4s/626wo76aTw3e0j4eO4hhqPv9W26xjqoXgRHc4/L8EXK7X2S7in76Fx48Ry+W4HIrDOZ3i8JHwi8Hd/BFPw/FXDC74KwYX9fM2S3rg6l83vpM/gWfrI9HN788ng9s8DUefYE64ZPQcQAYtLv6JKIFkp8I55FfKyxSGC5j4K6xNz0lHGL2Ac4MQZXjHClh+asOFAAU+T53wJ8G3ylpGb8tG0Odwm76gzflgMmVGLfLzU64E+fnUdqL77w0XMuZpfrvy22bzyvjLOWQ7nxuNxX9BOC9bHL8Y3MmfkJGzDTIfnId8uE1nuPbl4zlp59dv0y2GO1x/Mnoj6EsxuiK/GP288N6pzMR4gesxwvuCeMI7FsB3lJfgticWfJCwxX2hVMDFxxt4GZsOh9vPbho2nMq4y3H52DhuOBe4DedfoOHn/LkzlGHO++Hhwhk6cWxZ/Hy4TevJwnuOR3ITsrd5tOVTGG7X+WRwm65dV6H6bfpUbjj+CsOd+HJdhe5t+oX5c+IM3988Onyy+h+PPh/ppa0nuxLeAKcTsDomF56TcnBlsxspz9k5DdY4ZsgEEyO9xCDBLEPn9GwYfWGGfdyBleH154Rl4eTgwqmwtLjREz7x6zZgrhRioY944DRYOasu8T1AIafc13FyjshuP6cv+JCNksvFqYS0uj5C+PzvDLf5sadDop32SExyyee/GFzoRTH4T6XP6Qo+OE98pC7MH/FcCC74KwYX/PE2i/rcaX79Tv5EeSpn85ff308Gt3kajj7BnHBppOdfO1VSfnQPNqElFkHM4B+NFMZBKV0q+9c6/bzBxaT1ZVT2rrCMa5XjdGyjEEYl/gwr/r5isn/O0xds+Tfc2D/p2eIg4fI/tLDvtdH37nL5/Iu4hGOqCSQzKjLis9PsJxb8g5AkdN4OnopO4B8GJfp8zm9qCSiqxj7nLYQraKdVDSr72KYYwflvuFk5dkZBg6HFkUrGEU9mkKKPZboEbyuTkOFInl12GjaOTefnw21afx3pZVk8/r1tXLYzKdRXPC83eOUGDGfZkeAj8VUM3zJ6YpZ+FpnGYMcN7Dq+GOtK76E5TUZnfS1WGDgZ2pBlbOIvIxbTWfrYpZFEnD6dbA5ZxsUVnj52yRQ/F1XQ13P5Bx/J6OnnkcQD3XPjJ+Om+smY6dIlGAlHAf0n3nY8hJtlP7ZsuHEYm/ecR3N/hNHkP260jZ6+Bpvjx9raoK/2Ms9LXwFWI2h/cAEHz9xEvTfMvDP9i840EuivvozDxy6hqsvH/ldPguWjmGW09ClvpR/Vt05i+cIFmL1qD+7Weqz2OTvV3WnFOomX+/lGPRJ9mZ98paX+sZVaLiv4KwS36fw0fLseJ75NV5bpcPxRuXy4k04+3K5frqfYvY3vpFu4/PD9MdIgUJimzG8x+vZIT59FNpLoqj6EycvfxrgzP+BRLMGMXghLjMg8FKc/1pJRWpUbGoyMB43NF3Gw4h7KQlEoDGYZdm6ElZWXwwz2DXkRRUjGKfAth8O+OW/Vx7++KxrO/25LP6DUYq24tn063hy7DHcbeqEb9JNN7kyIV4pSKBLh37Q3mePg0wPrM89DGtK+cqwZ/wFGz9mCBz0hZrDsE9N6FN573+KDtz7GsgPXEKDv9Vs/umQ0yDGYCqLNZzDjo1fxL0+/hLGL9+JGrZfTsKZFdmfYSkKdlZ8vw2W5iXYXg4t8kVJ5GV/OL0yLK61cju7Fszvl9G24TdNW/ifBF/QFHTd90hUeZclKbtcv8EWaj8/xBJ3icJu+m5bAoVTcizKCrv1s0xHl5f6282xaMlzQEeXkZ7qXnwUvAj8f/hSNevQjCtNQoehJRAL1uPboJM61N8GboT/LkrLQJ4/SyOhpKEaGXWk9w/41x+bc7PPXaSQjZTh8aiLe3LwQu5o6ENVTSBFdEgoLhzkDTLmtEZ+H2vT31AyUTAqpVAppRYWqJZFKJ5FWyUCtua6WgZJOIJlMIJFKI8OMzmD/eCPD1vUU0skAfJ3VuFveBl8szSMYVpcKTU0hralQlCRSSZoCKFCtf7aTUbNIQQ+h/epGvPz7Ufjmh9uI6jzSYTwbGejRemweNwpvj1+NW11h9i86ilAomiCnZJpxdJ5ehN8/8zJmbD6NIP3DjqIIgllf3RHGzfKYfLlByl86ccMI998bLtdJjl1+ZrxL/Dtgom0F4Dk61pdx8vBE+58QnqMr8AUP8rP7fjj+HgffTc/9LNEvyJ+r/LD9meVfUioqLxetQuWK0WdGTz+gTAQacK/mNI6WncbxinO42NeFHvajBDLUNAYGqnGl9DyuNt7BneYfceTBWVzsbIVHJQPtQ6vnJo7c2oz5ez7Du1smY/aFvdjz4CwutdRjQOXOg7wYMSd7PTJ6M+NFZ9UF7Nq6GRvXrMe27w/iypVj2LB2Pb47dQ+9MQW6EkRf9TXs274OCxfOx8Ll63D4Shn6EvSteQNZLYiB+rPY+M18LF+xBjuOlaAnTEbPpw5qvB8VFw/j8OmzOLhvN1YtWYQ124+gtMuPtPUzDD2bhRrvwJH5H+D5D+biZGU3C+HJoZBTZD/NUAdQsWcGfvfHz7D5QinSViRB3pbwTT2KlsOz8eLzH2DxgQdIUAQkvezjbr8si+FgRP/fGy7zYo/Q8uji7Du5PB9t8uE2HYLlw20aTwa36Qr+7BHOpinDCsOddIbjz02r0LON76RbqGy+Lbj5Hr6/C9OUaRTD5+G9ocDXdQPbf5iDMatH4/W5b2DS+cMoSySt0DaC0pI9+HTJu/hg4xRM3zMbo1d9gA92rsahlk7EMh248XAHxm/8DB+vHoV31n6ODzZPwphNM7Hq0hm0J+JsHYCYEJetAAb0WAUOrfwA//H//G948YVn8Pf/5W/xzB9exe//7Rn887+9jUOPmhEMtOHctvl49+0/4e1Ro/D2a7/H8y++hkXfXUNPNAND9aOn6jSWTP8IL/zTP+A//esXuFLdbYXyBuLeGix/51n8zd/9Cu99MQmTv3gfz/zyV/hgzk5U90ZzH3RM9d/DpFeexZvzdqMimGYfiOTCI+Olv+7EEKzajbdf+gPGrTkMn0r/teMdqJhDMPUQWg/PxvMvjMai/dzoKfTn835LscX6iMsI7E4SyiNS6uBCRl8MLvJF6saX84XyyHnu8JTjy33GlcuJY8NtmrbyU1lR3p0Woy/o5MM5XUFHlBPP7jQfX/D/ZPwVqyefvpM/wY/A56nd3858IScb7saXn+lefha8CKeSD3+K5uU0EmXiHtR33sKRSysxdtW7mHT5GEoT9AcVA1kzgoryvfhq1QcY/d1yfFt2FjvOzcebKydh0Y07GMwE0OevxY/lB7Bi/5d4d+sMLLx+FucaSlDa50FYz4Dm7Vz5LeXNjfgGjGgpfvhmDP7pd5/ixOlv8cVL/4pfjVqAkwe24KPX38C8k/fhDfWjveQGSmvq4PX54W28juXj3sWv3l2Em030A8oMVDWFVKAWZ1d8gn9+ZTouVpHR0x9iDCT6qrD2/efwH//nq/j2Zg1CA9U4tOhj/OL343DwTjOLFnQzhUj7Mbz1r09j7Lof0JGxphZZky8Y0sp+No1471l8/uoLeHfuJjTGaYpAgtVg6BlklX5cXT8Ov3p+DNaeqUSC5MsWPMVWpb17YXcq7ygKx0gZRb5Ied5fP4zJFlot+ZBROeVjb3mKfJEKmcr4Ik8YPZUtBKdycqgu8OQ0B5f6T+ZP5kPGc/c3q0vq/5HgjGdrIBW4bvqijAy3jF7HEFVmxOFp+AGz1n2ASVdOo4SMnkYlI4xyZvSfYPrFs+hQk6io3IOPl4/FvMsX0ZnmI6ISq8Dxi1Mx6tul+LbdiwQZQjbLF81yo5vt1diCGhlMtAwnNk7Ac2PWoLnuGjZNGIXXFpxC3Z3zmDv6bUzefwu9iRjCPRU4c3AbFi1YhIWzv8KHrzyD//bs5zhT3sH+507Gp0UbcH7laPzitdm4WN2TM/q4twrrPvoDnhnzDR70JqCrPag7Phf/9uJobDv3CCn2z70IApU78Lt/+Q2m7jiJflVnBs0X66jzTbbqnwnewYQ3X8QrE1fiUSAFhdqgpxCovYrdKybhhV/+C175ajVud4aQsRYeZaEXu3crh7NcoZHeliV5+5+LL9cnjMHOyx8xbJgYXdwjjrz199Pw7Tqc+Pn8CR5kmbjvh+PvcfDd9NzPNv3C/DnLD99ftvO3ZeDEHym/GP2n2AiVpV8V048f0/DWHsHste8yo6eRngzJNMKoqNyHL1eOxZzLF9CnK6it3IvPVnyO+ZfOoiOtsBBXDZfhxLnJeG/Xcuxq60Oawl42CpLBkFLaDeH71hRGmtzoN03Cbz9dh+aaS9g6dRReX3Ie9XcvYcFHb2PKvuto66zE9oUT8NuXXsabH3yGzz99A3965h/w3389CmfK29niIs3ttUg9zq0YjV++NhuXqz3QDAVK1kDMU4F1o1/BSxO3omwgBVPpRsOpOXjupVHYdu4h0mx/PoJg9Xa89MtnMHHbSXhpEZHNyWl05qvF2pCKdOAOxr/xIl6ZvBplIfrvHP2VNg1P+RWsmvY+nv2f/4A/TdqAB96ktdBHncXbLxsn6xRyhpZcmGcXMpJSBrcW8kRZOf1LwQU/lNKryOJZ0GcjocTX48DZK82EYy3UyXw/Dj6VL1R/Hn9ipC7GXxF4jr8i8Fz9TH95lCb4FqlokywfmT+5nChLqbu/5boeB050xSVwKRX1Ef1CcGvLjn4+SXPTJDyNxzFr3buYdPUUypM0itHPGqIoryCj/wKzL51Hv55CTeX3+HT5Z5h36Sza0/QzSh1quBTHzk3Bu7uWYGebBzF2mIe8Pb9koxdeip0DiD7C0Y0T8NtP1qGp5jK2TH0ff1pyDnV3LmLB6Hcxc+953D6/Gy/98hcYt+kI2gMxxIOVOL1uAv75+dE4UdqCDE1RaKSP1eHiyo/wy9fm4lK1B6pORqkzo1//8St4ccIWPOono+9EIzP697DtXAkzegrvox3H8ObT/4rRq4+gJW3y/9Cz0Zp+eEnOMY149xl8/MpLeG/eDrQkeDTAjFmJIxVuxfFlX+CXL36KrZdqkBROI2f0tuMTncM6TIR1Uqfl4BZMfpY7V9wLuDstBmd9IIxKTLes+nPhqQR30xXPRIfu5WdRJxvxLJoMXqCdoqzAF6mbP5FPqZs/wYOgJafiXsYXeU/Cn+DHTUfQkvNl/kQ+lWOXNGWQnwVclHenbrhosyhXiD+C5eBW/czos2YcoWgXGjxVuHJ7KyasG4WvTm7DsdYqVPm86MuE8ZCMftUXmHnpAvr1JGoqv8MnKz/FvMvn0caMngyuCqcvzcLbG6dg4Y9XcKe7ES1BH2K0ncY621Z4agD9XZZGZz32CMc2jcNvx6xDU/VlbJv6Af609Bzq75zFwtFvY+ae07h6cjOe/eensfbSfUQ0HYG2y5j+xtP4r/8yCqcqWqHQQR5dhZ5owaU1X+DXr8/Gj7W9UHQdKdNAtLccGz5+Gc+N344SMnq1E42nZ+G5F9/D1rMlSGUNKFkNGf9DzHjzt3h1+lY8GEyxSIEJ1yReszDNBAYebsJrL7yKqZtOwceiAepM+p20iaweQbO1kLdk/31u9OzoMV/TEB0l0lynSIYj8kT6JGUFzuOkw9F1w4aj5y4rP8v3RMP9/CR05bJuOu5nuexw924897OMOxxMLkf3w5V1w9zPblrFnt147udieDy8Vz24U7ofc7+bja+2jMU7y97CO+vH4ovdMzH99GGc7WnH9fI9+GTpaEw7fxZ9egoVZbvx4aIPMev8KbSzOb0BU/GgrHIXxq4bg/fWfoEvv12EDTcvoyOVYpEAMcUu8jjs3mCLbGT0h9Z8iV+PWoG6yktYP/4tvDzvBGpvncbMd1/BpG8voKbiEmZ8+Apefu9TLFmzHisXfo3n/9+/x3/6f97C6YoWxIMduHZoF9YtnoL3nvu/8R/+yy8wZsJsrN66D3fa+hDwlGPVey/i6c83oMSbgKl0oeb4DPz6mdex4eRdZNjvow3oiQ6cWvYxfjtqNo6XdlgHjKgTidcsdHUQ93dOwkuvf4Ftl6uQtKYvpmFCNYdgaFG0HJmNF1/4EEv230VCU6DTaO8a7XKysGQiRhx3Pj0zmDU6OJ6FPEWak6uQryt1wXN0ZR4K3BfiSc57EjrusjId9/1wZd0w97ObVrFnN577WcYbDiaXo/vhyuZgVn/knkU/itTVXyPVkUenCD4P77UgKhtvYOe53dhycTe2X/4e2y5/jy0Xd2L7nau4N9iPZs8jHLqyH6fr6xA1NXg897H30kGcqauBX+Un80wziWi0FddLTmDn5V3YcH4/jlaUoD9D4b89/xAeiAyJze3T3aj48Rg27buCfm8DfjyxBzsvlMPbWoOze3fi+P0GxFMBtJVcwPxZUzHmy/FYunIJ9u/bieUbD6C2ZxDRwTZ8t2o+xn78IT7/5GN8+ulYfPzJZ/hi0mxcrmxEPNKF63u3YuPh6+iKqMjqIfRUncGGTd/iTnU7dHZmnvbZE/A+3Iu3/vAmluy5CJ9Gi3f8cI1OkUngERaPeQfvT9+Msr64dXCIDuXQfG+IHdVtPzUfv3/2Zczcfh5hlTsLWtOQ51i2DGzDpDzqWHfKO9sK04RCSOXc8JHwBdypRLxuUT8pkLOcXb/IF6m7fkGX4EIR6V6Ud6eizkL5Mi0Zns9fvtxE+WL0Cf5Y/IkplyV7QVekbocu6Aq4SEVbRDpSvoCLtBAewYrBBcwNf4oW2kwzg7SWRESJIZiJIqzE2H0kE0FQzbAXbxQ9gagSRUTnb6epWhwxJY6oprOFLHbIhoRipKEoUUQJNxNHRKNTfOT56H1wzqBghoyerqyRhp6JIZLKQNeTUFMxhDL00koGSiqGuEonAlWYSgSJyAD8oRBC8RiSmRjiiRR7sSar04lAP4KBAIKhMMJhP4JBP/yhCCIqf69ATUYQSanIGEP83L8WQSxBp/TIYLN8dd40kA7WYuPMrzFh6S5UeMNQ2VYdP23XX3YIX4z+EuuP3kQw9yKNZfTs5GAGwYr9+PS1F/HLl97Dsl2nUNrSx47/inbzTuBtFx1JchBbRlwu5AxkQxTv08v5f1m4XZ8wBhd9ttg5TP0F4LZR0aLSCG8RPgGc07X5Y/IbBr8YXPBXDC73jywfnl+8fid/cjlbfvn9TbDHh3N+iPZw9PPhbKSnl1rogAltoZHxavRCCh1PNehtMj4a07NKYQvLN9g9MchX4WmVm1fMadCiIB2LpdBWNIQ8sX1vC5NesOH57OUadm6A6Fpn9q36WV1ES1eh0mux5HxoDk8GSwbDwm/x51yDwYkHuV2cFypL4TatuNNpPnpxh+q39tGzWWT1OAJNd3Hxx4do7ouw9QhaqDSNFAZqbuLSrXJ0BBKsXjqmbAuf5KPBTHtRemkvZoz/Ep/O3IwL5Z1sB4Ha4Pa6DjlYI72cZ9/ne3QbRvz/fLhMzzYG0WeineLZnRaG23QKw+06nwxu05X5IBrys/s+H+6kkw8fnl5x+k667nL8eThdoHpHgo/EWzF868s5tvHyI6MaM0TTMlgybLrojTbmEKw35rjBq8xohPGT8tlvvjkbJ1bvbWbIAOl4Ky2EcTrOhtC0wTpbbzkMux5ySoRrKQvbduSdRmUYHkvt0YVvH9IWJB1IMhg+va3HBcxHIva2nakjqyeRUjS2EMjKUnhO7c8kWD57tZaNLPa2CHdqxIMCLRNFLBSAP5xEgvb7pShHtEF2giSTQuE/5bPrL3z2nsvZVnJRD8tn/Ss5aSZ726nIfNv9ZcPtPNIr2urkCkx1CPoiT5TN1Z9b+3AaioCLVA6puV4JI7H4sHgW9FkfWiMi44PgjB/OH+9j+z0L1kcs/Lfkn3PuTr54O+z28b6VtvbICUm6S3Cqn9OXdceuh7dRtIdSq07iQUw1cnKyaFkRgpAPpcX0SfpcltQYiUkmtNyz5RwEE1aDeENt4dFrq7aw5XvOoGgEM3a2pUVlBD4vT6OvUJjc2325yII3ntUhjF7C5/zY9dr8kdLRJSICHs0QHbZfawmOPUshk3i7j+iw8ww0mrOy1luCUll+gIdevqHdCZpWqDyyoPK5SIrzRi8yGVZEQ3VSR/HzDG4F4KF/sU5kHT2CU6B2M/qMb16/iMLc8mJyZXN6mz+KaKgcL0vtpotP9VieFZGpzHnTTgc/6clkyQYPjquyHZsM27nJRXPitWshUyYX4lG8HSmck9Af0f8in2RHcuYDiGiPSEV/0ra00CmRZ5fhtNnbl8zA5YFQ3FP/0+vcSu4ifLqobluHOV/Uv3pWZVEr7V7xNzv5K+LMRqx6qM8ZH+yZcKmvhNGTrsm06d7WbSor2xvTBYuuuHenOaMXzDOCOSPnDMiV2MyJikUZrgByWfmeGDeHstCGstBpC8vBuE2L0ScBSY7DbhQpoSUgESEwgyMehNPIV27h0TltoTCiI2l6wfOYcTPehGCpLnr9lvMneGMv4DDBUjn6+Ag3VoLT1GHozya7zKEhtrjHziJYRjdkKhj6cxbZ/+/PyDJZCL75ll6Ox1y7qG1Uv2iXeOZ5BGP1O+CiT+TUagP7BgFFVXQ8mVJ+sIqUjBSUPTOj43yxxUuKXIasiIzxZSuig1+dvkUwBDMzBFPNImvQFifvL17OhKlkYSpDMDUbTnLncOKRpl5W3eQkmUOwozUqx9vL20Pt5/pBDoKMkdrF+5ZPOYk2GZzKYGT05OyIDi0uC8cn9IrVl+tvW0d4OQOmZvL2ZYaQ1fk2LeHa+mf3C8szNFYua/zZ0iXik5yBcJhWv+T0WsantnJnZtPnjov1HzmUXH/yHSLOC6cpjJ3n2bpgHc7hhXJGKhlcLk820oJwobxOWiRwCnfjsR6UNT7EvY42hOiVWGvqYNOnzpBp0CgpeWYGkz25UEJnfXKjbdrUeYI2NZ5wxDPdc4GQ4mfNDFdUeuNO6giHUlrRBc+z9t/Z9MKEqYVQ++BH7N39LbZ8dxIP6zqh6NaJR0OBt/YeDn+7DTu/3Y8bpbVsIZSvOwhH424P8c55dCu73D5qw/Bw/tES2lo0SVnpq0I6nSsgxeVOj6Y/9ExfEcrR1qlN9Czkxg2B2m7LRGe7H5m4hs6Lg2jfH0DPiQhibUkYOjlCMjAdSlpD99UA2g740X0sgnBDCobqpJOrl9psrROJ/pHrk8uRU2YwMkhjyDpEJdPlxkpty7K2URjvGljkNpPTsBwOi9xybTcQ7Uij5UgfOg+E4b0cQSZEDlB2HhbfgnfVRKQmjf67UaTD1toZWzQmuVujPutf3u/5dkF6wXWVy5zrQtYYsvowy/tH1CfRKqYPT+W8gTRHKPRbKjGXYOUL/LaKwS3FE0cuqSyf32fQ2XYZs9Z+jQkHdqM+Sfv2lueRtxwM+kSWaCTN58WXcWyF450tjFRWdLrno567sZQv5lWMf6kTubFYSm2koYYbcP3yFVR19iFJi5e6mPtZ/DKhWoZiOSk+UpFhm9DTrVg69j387d/9I178aA6OXKtASjPZ57Vol6Th6hHMGP07/P3/9Xd4Y8JStEXpa0O8UxlvIqwTKdUn2kVylzrVeW/JQuBJKW87GbaClFfB4K0YEu0qYvUK+m/HoIT56JroVuC9FEWyh69zGEMqKK/3UgyJHgXMYTADIyMjwxFzYJW9RZkIZlC9uQPl07vxaFw3Wvb1Q8twZSY9SMcU1O7sQtnMLjwa70H99l6oCWoTlz9vv2ijlRr01STLQcuDDbvnZcjoibdgWQoDt2PMEIWTp5Gb6gjcSWLgQRh6ynIQOTmSXPi2LJenvVVJekPOipwywai9vso4Sha3oGpyL+6Pb0WwLIksO5hFzo1HjeQE6CKcTERD26YAHkxvQaQ+jkgggepqP/pD/IMurG9YlEVhOndU3LgJ3+VMmKPVocR1DD6MI1ydQaZLR/+tKOsn7qztubxTPywbyOp/md9aCSOjhmazJoaG6NNTWXshwUyio+0cpnzzCb44uBO1yRQMqww3Qup0/uWa7BBnmuavdAkvx4SeNZH98xALi2n7h8Lj7J/5HjoL1azRR/AjGzoXAOEMMR65sWfZveBhyEwj0nEGf3zxZWw6cRVJ9p49TUeGcqv75NCIxpCgQx6WeW5SCg16shYLRv8Rv/twKi419mEgqbKVu2fTWgAAIABJREFUe1KYLB1VjgxgsPkMvn73dbz25WI0ReiYMEU19DYeV65cmlNMrqjkXNiuiDU3zSk2GQatHVj47vaLzqd5dt+9IEpnt8FzMozuPWHcm92MWAudo9DQeymMu+Nb0H0pCI3tiujovRzCrQlN6L4SgE4fFKE6aJGIXiM2/8y34VieDl3NIuXR4b+SQtP0EFp3DkJL8QiGOWTNRLpPQ/BOGm2zY2hY50UmSqMfGTUpOR+BqQ4ypCGD+oq/B8D0gLWPG5NoE+GxkV7X0bh5EA9mtSFQEWcjNdsizJqIdWVQPb8XD5Y1IBnIQDVVrqfmENiISUZvOR6uF7wOkmM2S2X+jCFq75AJNWog2aahd2cC98d3wPcgLhk9N3zilT6vRjJSYwY61gVRNs2DcHUMvS0+bFn/AGduBRHVqR5elzB0xgedC7H0jOone+LtJaegINaTxKMl7WjePojQ5QzuzWhA3+VwLjIivoke0xcWJVhO09InHt5bnZYT5LD/otNd/6KjTiXGNWSNGHzBZpS03MG1+pu43VWHtngciplGZ8dFzFg3FhP2r8eN7grcarqL292t6MnQmXaaC8YRCDSjpO0hrjTcxJWGO3jQ2w6vqrBz8TRKJpJdKGkuw/2OejT01eJu8x1caypFVSiEmEHGyUc7ZsTs3l47IKXLaiF0VN/Dwb17sGP7dhz44RTKugaRNBRkwu24fPJ7bJj7Nv77f/6v+N3o8Vi9dSd2Hr6Ohp4wdDqNp6cw2HAfN27fQ0lJCc4eP4wdO3fh2LVH6Imk+RwxVYfFn72NV8bTG3gJqGyKYu0QGCYyWR1K8Brmf/Ym3vp6KZoj9PoydYqSM1qn0fOFGvoMF60X8BFEKIsInek0YBaGtUOQ60dmJJaHZ58KU9B3LYyGGT70H06gd1sCVTP6Ea2ntyRV9J6KoHKCF92n/VBUBQq9RHQ2hLIJXnSdDbBQ3UibiFdr6D+ZgvdQAoOXk1AG+VSBRsyMmYG/MYzKaR607fZBSQmFI+doIGWmEfJEUT2rHw0b+6HERGRnheNaFqkWHYOnU+g9mMDghTQyXk6fOzMqZ8+Jc0ZvGujeHkbNNB/6L0cRb1TQfz6BcF0aoUcp1E8fQMNqL1IBBcleBYErGXgPpdB/IolEkwZDsUZ800SKHNO9NGIPNIRuKOg5FGWyiXdkoOm0dZ1Bz6kAbn3dCN+DBEzDivzYSK9D8esI3MjAcySOgRNp9KyMo3yGB+G6JFK+FM4d7MCyzfVoGqRIltcrdFbLGPC0RdHQlERlTRi3b/fiQXkIg1ErkiSjb0+ift4AOteF4T+RRtXUPvSdikLXuEMmg6dFRNqlog+/sJOk1pY01ZML70WlLJW2lxz5wqhyykUM0whFxpWA31eGvedXYOyGsfhg7Wf4ZMcibH34EH4liY6OS5i1aSw+2TId848swKdrxmDsvvU42NKBkG4iFW7H1asbMGn7JIzdOh6fbxmH8QfW42B9A/rZ4ZoovD0XMG3bNHy+awkWHFmMidsn4vMd87HuYRk8aQ269FYR8c323tmoqLOv0wYaL2DOZ2/j6V8/g+efex6/++MorKIv86QTiPXdwzezx+I1OsL7v/3v+Pt/+jX+8Kd38c6E9bhe1cONSg3i5roJeO65l/HWh2Mx5v238eprr+D9WZtwu3mQOSctVY/Fn72Dl79agoe+OBSdlJ4uClNpUVCB6r+M2WPewJvjlqI5mrE+2WUtyAkZM/4pXOQLn0aiF9X3L+HwoYM4eHA/9h08wK4DBw7g0OkrqOz0QbE+yyWMnstAhKb83QLvzSDKp/fAcySCnh1RlExvR6yRvjCkovdMGKUTPBi4GIOuGDB1A/2X4qiY1I+u8wHoioZgeRINSwdRM82PxhkRVE/vQ8cBP5QQOSByPgr8NVFUTfPmjJ6PYnwqoJgZhDriqJk5iIZNA1DiYtCgKEZHpCWN5tUB1Ez1oWVmFNVTfWjbFUDGT/Lh0wBh9CRXFlJbMus9GkXN9H70HY+jZ28EZRN60LplAL5LCVRPG0Db94OI96bQuS+I2uk+NM+MoW5aGHXL+xFrTrO1DuKVpgi1swbQMjeCjqVxNM0OoWG+H97LYahpOvuhwHMshDvjmuCnkZ6iANZfGpSYht4TUVRP60fD9DDa5ibQMSOGimkeRBrS0FUNHeVBLF/+EJdLY4ixSNE6mJXVkPQlcea7aiz+phabvm/Hls11mLuiEqduBxBMU8SnItqRQtm8LrSuD8J/JoP7k9vQey7MHJLYCTC1CBpLbuGHIxdR3x1CWhj9kEnhvT068hGbGOAjCW+IDCcFEnArFLXCh1S4Bj9cWIgP1n6O8Uc2YtuNvVh3fhe+L3kAXyaGzvbLmLv5E4zaNBnzzmzBysPT8M7KrzD13Fm0JFJIRLpw695+7Lp1FMfLLmD/jQ34auOX+PLAdtz1B5DRw/D0nMa4dR/jzdVfY+rJHdh7/zgOPjyL0y1t8CuKY6QX4RAZPs211Wgbrq75BP/rF69h28kb6OxsRHnJLdyq78RAUoGhJpEIdaH9wQ688C/PYf7Oo+gcDGAgmECSfaePVp39uLX8E/zd3/wtXvpiKW5UN6LH04nKxm50++NQs1nobKR/Cy9/tRQPfQkoLHS1jZ6thvuv5Iy+KUrfHOSjIQ/PubxJzsxjU8hLI+hgOfau/AovPPcsnnnmWTz97G/w9LPP4Jnf/AYvjvoau67XIEHTEaZ81H9iVZ/3E/UlzavDLUm07fcj8CiBwM0U2g4OIt3PXyEmxameNIC2ZRF0742iZ38U7cuiKJ8wiJ6rfoS7Y2heMoCaBQPw3UywMLdzdwhlk7vRdyPMFpTI6H01pPSy0fP5MPEkjL521iAb6TP0KTR2TkNHJqmgbZMf5ZP70Lk3jFitgtZ1QZRP9KD7tI85IuZArDm2WP8RYbzvThwNc/zo2hFB5/owysf3oXnFAPr2JFAx3YuBa3H0nomgcooXTav6EatS0Xs4garJfWjY4EU6mGHh88DNKGqmDKBykhcDZ+PIdBlINelsEU+1Tof2Hgszow8wo+dTTGrf4IMYKqZ6ULfAi2iJioHjCdRM9KJ8Wg/CTWl2sCwxmMTJPfVY+10LOsK0WM3PiNBKfNKXwNHNNZg4pxTXq5MI+lRcPNSGReuqUdWVYTsQ6UAaHcf96L+SQLxSRdPefoRq+GExWv8gx6BEWrFq7Jv4P/7mf+GbI7cRoyiAwvssM3or/BOhIAOIAlLqgnPvTSfzyMOn4em4hEXbPsUne1fiRE8HfEoUg0kfvIkY0kYSne2XMHP9GHy+fy1u+rpQ03wcY9d8gXE/7EN1NA5F8aGn7z6utf6I843XcOj+Lkza+iXGfLsSp3p7kTAi6POQ0X+CD7avxDlPJ3xaHGEthqCmImM5LxZ15N7dpgiEz9e0eDuurRuD//E/foN5Ww7jYW0r+iIJxDQDGQqNaR5lRhFq+A5/ePpFLDlwGVE6okyLROzDnyYMZRC3V3yKf/zH32H5Dw8QYfNevgVEH9Kg9+rJ6Jd8Jhk9G+n5yjnJjG2JBa5g1sdvspGejJ6mANxIJXlbHUTGytYDFB+CnjrU1VajuroG1TVVqK6pRk1NNaqaO9FNawPWSMg6V/SjmLoRHXLmaRNqwISRMGHEstDoXjWZ4+m9GEHNpAE2Qj6Y2oUHUztQObEPJV970Hs9iL6SEGqm9KNnYQKD+zMYOJpB79ok6iaH0LqvD0aGHKwKf23MYfTEj9g+oy01GulrZ/nQyMJ7kh/pkYq4L4mGeT7ULRhEoiPDRvbgI1ofCKB2Yw/UBCk0HaqyLqZ7JDM+dQg3pdC8MIjW5SF0r40yB9b1TQTeNUmUz+hBsDSJjq1BlE7ugf92HLpusFC/fVEIJTPaEe+mRVUFgzejqJ0yiMaF/Uh7+bQrS1EUvYdhbQf2HovgzrhmBB7SSC+M3oDnRBgPx3eg/1SM7UwkOhQ0zhlA2bQeROrp83MatIyKxvt+LFpWgpv19PFYvmNCbSOHcGJnI1Zsa0NzgNZJVLTc82HBygrcrU+xqaCp6NBCWejRLOtH6k89RVEQOXpafNSgJbw4vnEJ3nrzMxy/VYsk7cJYB3Z+5pYdHWOlLYo4GuuOYtI3ozH+5AFUpukMPe3D0rl6HVky+raLmL72c3x1eDeaUkl4Oy9j8tovMP7wXlRHQvANPsLu0yvw+foJmLB7IWbtnoHPvxmFj3ctwuHubsSNMLw9JzFu49f49MBh1EST1khI9VvKwNYWxHyXKwM3GgOGFoGv9gwmjnkPv33hRbz57vv4evZKnHnYhKBChpWFboQRqNmJl379PBbuPY8Q0aVRhR3XNaArPtxYPga/+v1E7L3TxuZ2BKOLFpPo02Kae6Qno2dGTYc0SLl5eD/r4zfwxtdL0URzelqIIznmXVyZ2SJl3IPaBxdw+OABHDjIQ/yDh/bj8KFDOHyGwns//4JPHg2iy50KHwVoPkxREW0X8cMjVC8dbWYj/cQ+9G5NInQ3g8i9DHo2x1ExoR/dV3zwXg2hZlI/Kqf2omyuB4/meFA514uq+V54r4fYvJiMl0b6qqletO72IZOidtvfHKCDLaF2K7y35vQ6myeriPYk0Dh7ADWrPUiH6atNGcR6Umic3Y+KFd3IRKydDvpgK9ui4hEN8U9tiQ9m0LLUj4YZAeaMOpbF0Lc+ie45SZTP7kS4KY62NX6UTOtiEQ+9jq2mVbSuDeD+5FZEWzn9wRs0TRhEy8Z+qFHaGrbWHWgXgSIpw4TnKBl9EwIPYmwbkOmZpqN7XxD3xrewBT6NPqceVNG22o/y6R5E6lI5vuPeFPZurcXWI93ojZOhcqNMDqRwfHcjNuzvRGdUg6ml0Vbaj8Ury3Gnjn+liX0CjvpwiM5V8P5k/4aw9J8crKlnkImHEQyEkSQnYW1JEp8/eU5PgqbFJT4lSKCt8TimrfkYXx/djfuxOFS2Gq+x46c6fU+/7SKmrf0c48jok3H0dF7E5DVfYMKRA6iNdKK8Zgc+WfcJPtqxEvtr7uJa9THM3/E5xny7CIe6e5AwwujrOYEvN47Hp4ePoTaWtDqDr2xzg5ENnvjjOwIcpmPIiMPf24wb5w9jzbwv8Nyv/gnPf7kO9zro2/ZD7LNgwZrd+N2vnsOiAxcRpKkBff3H5KvbRsaHH1d8it/8cRr23u1gRs+3Z/h8lV7M0dM0p6eRfhke+vlCHjuYxP7MQ6OtCtV/1Rrpl1lzejHS21Mp6hy6aJeDohdloBR7/v/2vvTJqmLL9/4D70W86Oh4Ef0+vOgb0bf7vu6+fa/XFvUKyjyLAk6gouKAoqgoDghKAcqkOIDKoIDMMyjKPBRjzQNFzXPVOafqVNWpOvNY0L8XK9dee+fe55xCnvdFvBfthx25c6/MlStXrpW5cuWwP5yF0cMH495h9+E+eoYOwdBh92H0tNn4+mgZ/EZvLnmtkE199acgw78gG1hUO6r/APCcvuCVFrQe6kJcmbER1RHkvdKKxp88aDveBQXf7Ie/LopAQwzBphgi7oQaaYjfZMnwSO9C3fpOZbJTR0CKT2WR0vfUB1D+dgcqV7sRVpYOma1R9LUFUPmOG1c/akfYSzcexdBbE0LV2x4ULWtCpJc2EpGDiuf2ZmemOtMYwsEoapZ1oHhOB+qX9qDzQARNn/Sham4Pit6vQ197ELUfe5E3txm+ipDaoBTpi6N+uQ/nX6+Bv54dru6TfSib50HtGjfifUy38JLagiyNtt0+XJhdDe8Fv9FZ83mQ5q2k9DXoPOdXG5qCnVHULSM/Sgt6y8NIKqcfTQNjKD7hxoKlebhSG0ZYrXzFEXKHsWdDJT75rhF1vXzorPaKB4uWFeFceZA7dmMQEbnm3ZGGvBvLev39MdygjWPqanbau8D7SWhF7JeN9GqUI0WLwNtyEp98+wIe//JtfFqQiyLPNRQ0lSC/tQW+eAANdd/jjY+fw6ytG3BNKf33eG3F83hl52aUd1fhQt4KTF/5HGbvP4jKQBeqG47gnbXP4OmNi7CtuRX+RDfamvZi1urZeGbbHqX0JLhccenx7UpPDh+lOJQuFoSvrRGtHi/8oSC8DblYNesB/Nv417D3Sr2xvdaHrorNGHvXYLz6+Q64InSjEHcc6rARKf2SZ3DvpNewJbfB2GpKNLBHmUb6ROgqcp6ZivGzFuOizOll/wFdsJmKItp5HO/QSD97CSp7yUtuCZY0pDJjCZ9xrDcZ60ZzTSkunj+Hc/RcOIfcC2eRez4XFwrKUE8+BXHWqHm98EZCnqowfrKM5Dt1mjxSth7qUUrdcqgLNHdV3vvD3ch7uQlNP3nQUeJD+ZsuVH/UiUBtFP2RfsQ6k+i7FkOsx5hGKe99L0redKNqVQcC7pix/JdCP11SSkrf6EfFOx5cXeJCoDWKRIxoiCHYE0ZVjhcl89zovOJHLJhA+6E+ZWpXrmtBLGRYXsQXxTPDgjHqEo/FUPtpJ0rmdKIspwV91eQT6ETJK24UL61BoCeE+vWdKHi1Dc27uxHzJ9BdFMa1t73If68BwXY+Iu4+6UfZvA7UrOlArJcPmkm7kDzRdKvtQC8uzq5B28FetfZPm5AoTdsPPlx5tRFN27uVldNXHcbVt1woeKMVvqshXpqm6UAqBl9jEJ8tu4ItR1zooKXN/hhCxkj/6RZN6S97kLOsGGfLg+p2KCpHNvGwnGh8UBYcWbZ+tBTnYt+OAyit9xjTX+78f5HSU4E8V4sjHm7C5YJ1eOXzZzFt1Sy88PVreP6rhVh24iRaw37U1h7CnOVPYeamr3A14Edj/SG89OFTvG7f24ba2t2Yt3Y2ZqxZgE9Pb8VnB5fg6aVTMG3tfGxubEZfshstDTvx3MfPY8bmbSj10SjKjOaDNCTEdqVXyxZqkwpt0HDh4tZP8O5b8/Dhx5/j8+UL8NC4MXjojTW43NjNo1AqhED7Obw+dSRGTHwYH639BtuPFKDKFUCE1uojHhxb9DjuGP0ivjlXq0YiGW1oW6Sa6tCcfubDGP/CYlzy0B15fPKOeJVIUY9LI/1RvPvUZKX015Qjj2DGyG4IMDcmfePfgyWvx9WehOs3eN2WtvKq5z+ug77RngU1Gpk/ubSUmgXWjl+EmEKamtDTst+HvNnNaN7XhUSUO4Pm/d1qo03jIQ9CPRHUb/Ai/7Vm1C7phevrMJpXBVG0uA3ecvobUlKNbn5PCBXLyMPfgZbVIbj2BRBuj6q1a+JXuCeC6tWdKH7dhZZVQbTvDMDfEEYsGkPLgW4UzW1D5YJutK0JoeodHwreaoE334+ktjOQOnSzDtTG17kjqF/vRckcD4o/bES0O6a890Uvt6N0VSNCfRF05vWhbL4LJW+0K/z1i/zIf60FTfu7EA9SnZNwH/Wj7I0OVJF579P5yFtdSa668v0onNeCqvm9aF8fRscpv/Lc+6qDKP/QhfL5nXBvDqNtTRBXX+tE/uvNyrxn/wOZ8gkkAhGcP9yIRSsLUdpEPpk4gu4Adn5ZihUb61BLZcfDqLnkwXuL83GmJICIMtM1OVfyzXpAvFUdOFlcgVZsfm8W/unvb8OKbSfgT5AlwHX5RUpPQs477sjkCiPor8KpvO+weNsHeGPTAszfuw67qmrQFY+gtfUSvti+HMt+OoTmSASu9kv4ZOtyrDx6EDX+XgQCdTh9eRsWb1+M93Z9gtVHvsLKXYux6MAGHHO5EUz44XadxYqdK7HkyFE0+mltWSovlZY4C6y13p1EMtSBiiMb8cozj2P4yFEYNWIUnn5lAY4UN6KHzsUnY4hQLx5x4fK+L/HEw5Nx78jxeHDmQhzNr1GjaCLag7xNS/HivI/xU2kzYjLXk5GGfADBMuTMfAiTX1mGwu4oX5pJnnPlAOIePuk7jfeffwxTZi/GNXLAaceHTUHWlJ9HZU3IDZgtrTL57B57G9zRqQhMRnxS+o5cPwoXtsB9rletyRN/Pbl9KFjYCPcFn/oWao2hdaMfJe96lJlc/nY7qj/zIthknIikDUSxBLouhVC5uAsFc5tx+YNadFcGDKcq3Rzcj57iCKqX96DwjVZcml8Db1GfWnIKe+No3Ub4XWqtv/S9DrUXIBG02pZotyk98YOUKJmA63gfrr7vQe0O2hiUQPsPPpTOd6PhQIeav8dDcXQeD+Lq+51q9C1+y4XmLX2IdtCuPsZBu+wqlrvRuKcT8SBPJVhhpA1iiPlicO8PovjtduS/2YLiL+sR9sbUCkP35TAqlnag4O0WlC3yoPnDIMpXuhBojFiWKW0uo/9N1PRhcc4F7D3dhe4I7RcJ4+ShOuz6sVnN9WmtveWaF99uqUBJXZC3hht0ShvaQxpAiL5KrHh+Cv7n74bgiyPFCCRoeZPpNw/ccEZmrGkSmyOnXakETp5Y2lzAIyrtXqKdYX6+QCPUg+5IGH41/4ojlgijL9wHX4zmb9TwQfSFeuGLRlTvpfwDCT98IS88wR70RPzwRygMIESNTI6LZBC+cC+6aeOI8sqLIDB9ii7xYJMCK1OM0/TT/Cbcg+5ON1pbm9Ha1g5vL82ReM5MeWnnHdXlerwPvq52tLS2oNntRR9d6EF7EUjJA93o6Q0iFONek0YGPkBEe/VTSukXPDkR/z5sCpZuPYbSxg5jSYaP8nbUl+Lktg8wcchdmPDcfPCSHfsEhK/2RrTKIb5RJyumHY0avMzHaeTdwiPtRp2B4xIOwqPaV+b7hme/i34CavhCiJfhfsS7aA7K5rua04b6EXP1I9qSQrQ1hbiPfgKitQWtGCQSiHclEWlOItpGc36hhZyT5BxNIN6TQrQliUgbXVPGZjM5GFO0wuDuR6QlhVgn7f3nelK9uG6UlgRYcHL9VZwuM+2+jqTyZvcjEb6ORFc/4kHeR0COr3gsqfAS/mh7CvGQ7Hgz8JBjt6cfCT8dw+Zdm2ZZxBOSX5KXKOePNqXUPgJaBVH8oW3X3qSqG/GJ6CEekaWi6Fc4jOlQXxw/7a7Cl1urUN9BDvAkQqEkgrQSonadJtUqAH2L0jkJtXuQLUOSE2lrCVlOe9HTcALTxwzBA7OWorCDBhaqW5rSW40mjOWKWt8lLgVQA7HQ88YT9ghbQkRKR+fIRYgproiib9oGIIbz0ohqdLXJhvDQdkxmFL1L5yJ7+4UeClmALVoVjabS07ZL7umU8CucvJxHefmbCFRKpWWadHzUM5OJFDdvuBElUzsBU3S/P50iq8e3S9/A0CHDMPzh17D5p3xE6JALCWwqhPIj32L2Q6Mx5J4ReH3FN2gOxdS+fBppFS/TBFmU0xA0A27W16gjCYgatTXF0PljKT3XScqirZokwIo+RSMLlhJe4pPaTspTB6on0Um8oYMr14l3pOzK78DtRR2g6VGmE2ZqBYd5zA4nQx4UHuKJ7GZj/wXRTG2utr+qrb6skKnrllxxvYgOrotJO9VFOZiJbkN+lE/GqpPis5IlLpfpJ2U1FN7gL/GLttJSGfQu/FahsR2alYgGA3buKXqMtOTUVHcz0EBivKvr1AzHrMnfeAKdLQFczHPB1WPfa6LkXNpT4eWOgmkheTZOeJrKT/TSIaoeuKuP461XX8E3By+q/zFaPJO9905z0WSAMMIROuFyFFKZXZKWexUxH6kxdMbxO6elNHTCjoSFlY2+i7NG8lmhlUbKEjyi/JTWSG/SSksbNMJwQ+qOIBYQEjrZHcblW4xiuqzRjHDzMhsLOJdFS2u0MzHkc6O9pRmNrV50+MlzzWuo5PBM9LbD3dyA5hY3PP4QwkppNXpVWxhLRKpnFp5YdctUf52fmeBUF9UROtqa+ST846OaahQzOlIRMIXT4CXzieplHM81zGvqlNUoaJRBo7Fqf/WXIXpnngl9BFcjr3HIivnE9VR0GR0SKaQotp5X3u0hDUBUH4Nvat2a6yftyYOTcYyYVqBUeu4wSC4UzUZdGTfD6F3BlLwyTqFf6qb4peimuvGSGtHCZyacbUh46c9ISUTJaqCTj2b7EP2WDnDZen6RC6mbWIBkUYbVvx+7u7vQp/7SZNFPOH/RnN5iiEG8IlgTLhvjWDH4UAX3WFIR6WWJSaqihMdYIycmytydBZBGFquiigaK02kqMq8VjPY0Wx5qzseCQ3ip55adejT6iNJz+ezwIK+5wq3SC4NJqalsYj6t38opQGODEzWuEgwa7SgdX6AhFgGFJNhs8RBOwxut0vKIyzylpSOiX8qVMvXGc/Agi1IzPs6fSektONWbldLc329aH9wJST30PPJOPCY4laHebRYJTc/YCUbphQ5pF/km36XjILiksY16pmKk84DpsfOJcWhyadBGaS0eW3CTDilH2kfLx3mtcpg3EpeQZV7qwLRZNAuvlOJrHaKkN+lQ5ev5+D0tnaoPlW20AbWfuiVKl6NElnV63dzT3oloIkQeiWeqjPObimtzGSJYHkuJaSMLnWe3zs1TT6rmsYayUYX08vVy6NAJKTsdXqF1Xy6TaLaYpEbmRAx01x6ZXUwDe1MpvVJ81flQHqJRel+yBOihO/VYOcj5p377JcKRpMNDfOKNTkPxSCcCwHTzMU17I3AdDH6ozor3BVBdqCxzDq/MV8YnPKBQ54n+faB3nW/0LgJElpB6N5YRqfMSntqOuBJPHcKofBtqSmAJO+NifkmZQpdSbgOP+U06L1WvzPJGaQmX5LHH5bsVUjmSVt4V7apTE488pxG8et3MvNTOBi7iuZ1+Kc/Cw2VYnbmOR38XvqjQtGrs+CS9FbJMW3FDzlSbGO8il4pXFr7Mm3M0JjmRZorbiNZ6cud3mceo0U56cbOSPF9MRdxw1ZShuLoVgSibm+rsvVEZLp8qwJXWyzDxGkIhMCstHzdMhN2oL7+EM6dO4cTZAjR29qnjr3wuno5EhuB316CirgUdflJe6hR4D7xaclMKTRaIoeRKaXiKwh1W1Ng80K3CAAAgAElEQVSFZzFaFJNoojoIbXqcTEeFP0l7wNl0ps7L6sC0fBrf9Db5ee/pvFNCTLSpq8BIUKmz4zZRjleyOtKUzVB88r3QkhldKhoLoKu1GpUNLegJUceqKZwxUv48GrW6Gh2+8E0PBZfwUeI/N3Tmc8Z1PAPB9HT0PlBaJ4zjLNNOPAPFM+MxOh1DPigNP1Y7/BXMe+79dAKsguy9kSilKL+kI6WkypFpHOnIxzcfvIzpr32GWo9Pmbls3lvESz4JmTFkngYQ99Xh6tVatPXKRR1smtJoqRxtcR8az2zCjIcn464hI3D/Iy/ih0sl6oQcz+fi6h/1+1YvwMsffIHzNW0qn6I9kUKgJo5QfRzxziQC1+LqGKbaEppIwN8RQ01VCFXNUfSFxfmjK77UgUKii2mjesitQeGWBPyVMbUnPlSTQLA+hhitFKhphp7f+a6NMGZD62kyw3WhIodcf7IXoY5aVFRUweXnvxbziCYWj46T3g2rRbUfeclbkbtnNWbPWYgjBfVqGVR1eMpiciqyjotgPx9umeVOHHrc+Z6O344nHS4y9vNCK78dr5MOjhPvB8J7M/hAeQmWLf8tjvRWb8EFMtFkwolXm7zk6vILY2RkoaB0/NDlGnzBhhwnJM8qPdR50EGQeuT9sBVf7LwIVy+dIScG8cijBJQuFzB/rsiCKKbp9WQnmi9vwtgxj+Bg3lV16o3mgoSX5+39iPkbsPn1qRj94DP49vBZlFS2oK03jDilU1dJBdBZthtP338/3vpiH5rVhg3+VXUkGEH1yg6UfNoEz6k+lCxyoWJXkzpu2dcewpEDNfho1Vl89mURzhV1ozfK6/NkFqsGUI3M9SbLQfkW1IjKQkAOsqYdXcjLqUfH6SBqVnuRt6pG7d9WjUgrHo7jw4onZJkZh4wk7hQI+k58oodu9eV0vIzH7ccrMP+RdKHwhy8xecqTOFJQhbBaxuy3fBEkTAZPpR1S1H7XyY9Bh1K64Crch5lTHsa8z/ehOUxlkqfZKp9os5xllu+CaCI5sOpgyVum+kk6lY9kMBtvxHLNAFd81eCqg5K4IxwIpmjR8NvwZsNjpM+KV8On11Xenfmc8Wz8uMWjtaK4hrIrTye9xxDvdaOtsQ4NTfUoLylAflEJGjt61Dledt4lEQ90wd3agFZPF9oaqlCUfwV5pZVopsMViSC63dUoKLiA/IJClNT3wB+1ligSYR86W+rQ7HKjurIMBfl5uFbfqu6Yo3l2yO/CteLj2PP5bPzuH/8dC7/8Dmcv5aOwohm+UBypWADtdVXIO7oVL42+G0Mffxvbjl1EQUklPD7aTUZbZK8jGW5H7tdzMOKB2dh0+qq69IJhMYT8YdS+342yJW1wHepDzTs9qPimFTF/BGUnmrBucw3yr3bj1P4WrN/biBq6pUV1aLJklEAskoLHFUZdnR/1jSF4uuMIq4sOyNKJouFrLwrfakXn92HUL+5F4QeNCLkjal3bbGxjakNxamhubLrRh01y87smbNTxqeXQeACdrXUoKsrDlYJClNU0wBumqUQYoV43ruYdwvolz+EPf7wHi9dtx9n8IhRXNaM3wn//TdKPUFxNaHF50NbWhPKSfFwpKEJVWzcCiZSaJoU7SrHhracx5bn3caKyUx3mIc8+T5+MUY4uXVFC3W/4SMTPIRaJFar6UVpb/WQkk/qz0ovg66G82/MLfh5UFG9t+AXOocl78Tk4wvT8Fn1me5htxTSntdctwoWmgfBLGuKBPL9I6ak3o51m8WQIVw9/jSdH3YvhDz6KBx+ciBFDhuDJ15bgTHUHQuroZBzuvEN457EJuP/xOXjp+acx6r57MPSBGfj4YBF8fXU4u3cxJo28Hbf94d8x5sWvUOXhrZ3kIOqsyMXC6RMxevIMTH9iGkYPuRP3jXsc606UoTvai8bS/Xhh+ljc+Yff4r/81/+O3/95EP4ybBwembMahfUdCPU0YMfSubh/8J/xj3/3N/jbf/g3/OmeERg9dRYOXixTnn/aMhv2FiFn2hiMf/VT5Lb2qvrRUh0dGgkHIqjN6VHbLN2H/ah+txsVm+ietxAqzzRj/TdVOJ/nwk+7mrDpcBPqu8PwdkRR3+xHF93NFo6i4HQ7li8vxPxFl/De0iv45mAjGnw89aARsWGdF0VvtaDzhxAalvSgaJGh9Ka5JsJoCRULdSalN6wccliR6R7vQt35HXjxsakYdOdduPOuQRj7+IvYfqUGwVQXavL2YcbU4bj9n/8e/+1v/gf++fY7cPfw+/HY66tR2e5DNHUdYVcxNrz5FCZNmY7nXnwZUyaOweChY/HSyt2o74kiQmvrkUaU7M3ByJGT8dmBiwiQwBkdlDoxGOtDS3khzp7JR0NHH/9BSKYJafU0lPpXpTeVVpRcFFriotQS505V5EVXemVWWw4ZZWbTdVmZvss3uU5LzUUT6ldUJbuW495/+C3+bcIsfH/2PH7cvgJTJ96PWUu3o7GXdt3F4Tq/A8/e/c/4238dg/mfbMSZs8dx+NgZHCtsRSDcgz5PBYpOrsfrj4zD7Y+uQnGLT61v0ly/o+w4Xhp6G/7uj/dj3f5jOP/9ejz9wDiMn7MWZa1ehHubUVV+Enu/moc//Mtd+HDDNlwoKEFRtQtddKtOzAdvfRnyT+7Bs+OGYtTM+dh2/AKulNUZ83/aXBOGv/kInhh+Lx5fugWV6jfUPO0gL3Y0HEXt+i5UbmpD56UArq32oPbHdiSiMQQ6wzh6uAYrVx/HxvUFOHfRh9LyAPbuqcaW/ZWocfWht96HNR+X4NON1cgv8+PKlS6cK+xEs4/Wc2kkjqH1cDdKVjfBezGE+g3dKNvQiIiPvd/SyNTZOttHwWjTk7SRUnRZlSAroh9R1xWsfeMJDBk5DWu3H8LRIwexcet2/FjagAD93MPXisqin/DNitdwx6ChWLlxOy4UlKKouh29Uerg+xFqK8QnM0bj73/7Rzw8ZxEOHTuKk6dOY++Zq2jro/vur+N6sgOtlzZgwtCReHvdfnSQaU90qWXIFMJd1fhs7kwMumMC1h64qC4gtXwD6XWjOpl1N+pnLgFq9VXCrsV1XggO5zcdz83yO/M643p+Ha8zncTlAlqJO8ObwZ3pnfFs+X/jTDhg3Clsam7GW2rLdi/D+EFD8OTKH9ER70eq7xLWvDkdQx6Yg9MNHQin4nBf2o5Zg2/DoMdyUOihW0Qi6txvWJ1npxtjk4h6zmDdq5Mx+MnVKGntVXviaf7XUX4Mc8cPxZBnP0VZVxwJ3xUcWPYM7pw0D0dLWtTGhlS8HfWnluHuQROwObcMATWXlJN2fMlFqLMEH00fi8nvf4f8TuNSSpWO5vR96CrbiHF3D8Era/aiNcY0UQ+q/AbJpDpGGutIIuHvR4S2cPqMkYj27vcl0FoVxvlLQezd34Bvt5Ti2GkP6t0J+GMJeK+68VFOMT7b2oLqtjh8gX4EYv0IG1uBae4f60oi2p5E0k9bUVOIeugXXWyC8ohO5bGJrNpK3sXc1IRe7RQ0R9h+hJpOYMmMsRg06mnsOl2CJpcHvmBQTZGI96TU/fFaFO7NwdARk7HjwjWE1ElK8q2weR9qL8JnT9+P2/7yMDafq1X/OaRl1kicTuWxB58uI+msOIiHR4/As8s2oj5irJrQakAqhYivFusWvILhwx/Dxh/yVBnKkanRbtbN+Jam9Go1QesgxEJw4tDiulKKnCuHm1ZGpg5V0g4IMzomSavjlW9maOiRSY9Tr3R6NPrN/PLNmc8RN/FLeiO8RUee3uOy8NF8N5kMonjncjww6kG8vbcI/tR1/Ee8GntWzsLg0dOxp7wB/mQc7otbMXv0cDy44CDcYRFeQ6FobZ5GU9dprHl5Mv7yxCdK6Wm/O33vKP0Rb0wag8kf7EdzIIVUoBhH1z6PwRNewveFdarD6E+0ofrYMgy6fRQ2nilCwJjTkmlJDKDRNOguRM6jo/Hguxtw2R1UJ5tYmfjmHG/J1xh512C8/tU+uNRNKfY5ndo5qNayaVpDzi8eXRPxCFwt3Th3rBbfbK7EroPtOHOpF6VVfnT5abkrhUi3H/u3VOOdnHysWleBnd83o7imF/4YLwdSGt7cQ44uPoOuhIcEmhrUUGy1tKf8KTIPtmBSVwp5ExCN9qyMyUA1jm98H0P/cg9G3v8IXpq3AOt2H0WdusCTbs/px/V4LS7teB/3Dp2ErdRxGo5GOldBB5JCbXn49NmHMPKxRThT3auUmJSBRzbaukp89MNb9QMeHTsSTy5Zh1raS09XiSkPPjn7QvC21KHsag3cProXgVcnCA/RKo8zLt8pdMKccT3tQO/OfM64nncgmJ6O3gdK64Q5405c2eLOfM54tny/eMlOjYCJkFL6+0dMwlu7ChBI9uNGgpT+RQweOR27yxsRTMbhuvgdXp44Go8uO4HOsDFaqd6fmUQCH20/hc9fnoK/PPExSlt8aqSnzSGekh/xxgNjMDlnPxr8pPQlOPrF87hn/PM4XFCrDhRcj7eh6uiHGHTHWHx7thhBGaENhSGhC7oKkTNtlKn0dFKOTU+iIYDuyq2YeM9gzPp0N5qiZPLrcyJSRt7Oy+vovAGHrp8OdfXi6JEabD9YjfKqblzO7cKGDdVY8Xkpdh9rRyvdLZ+Mw+eNojjPhYN7a/DxikIs+uwaLlTSjcGkFDQSWltTqSxat+crooVfvPGFOgjucIhuNv+p0bM9vAsxhFBPE/LOfo+vPs7BC9PG487BozF3zRG0B9l8vx6vxvkdH+De+yZh+/lyg4e8ShLuTyHUegWfvvAwxj2zAufqAmrnISmtCLpaAUl2w1O2B1NHDMcLKzejJU6dGc/r1UqBdMbK7Kedj9R58S7EbPRTh8cP11E6Q3t6liP7N50n6XA7nnR4dlw6Xnm38tvxCtwemjzL0m43g9+Mtmz5M4/02mEYypj2aHDViMkQSnevxOjb7sTUhTvhiqSQ6DqL5bOn4q5Jr+JsYyfCqQRcF7fi5Ylj8MiyE+gIi6CQoBujPY1I3otY/+ajuHfml6jy0KUDPGJ5Sn/Emw+OwZScvWgM9BtK/wIGj5+FwwV16sjh9YQLtSeW4Y7bhmHtiQIEaNRRHmIqi7fphtz5WExKP/8bXPEEWaFk2aw/ikD7aTw3ZigeWbgRJTTXVv+iIzOShVZ4IQxXhx7ImRmOwe2OwtUTR8Drx56djdh5qAlFhV1Yv7kBP+S2qT+8BEm56JpnfwplJzqxYGklthxvRZj2XRsjhDLjHILAG4zYTI50taDi8mUUXWtRd6fzll/eWSZKpSuJanyqYzQAf7cXoXAYYb8XtWc34ZlJE3D3kytR7g6p+fiNRC0u7/oA99wzDhvPlJo8pPqaSj/rYYyduRLn6unON+6EVBlKeVO4kXSh8cxajB06Bh98+wN6VAdFAm9YH/GA8q9cuUSOPJ/y+FOdeb8Gy4Xw2QwNR57EOb1DNlVbO77p8psBbsOTAS7l/axQy2/Dq9OgveuOtkz4bwbPlEf/li3/X03py/asxPDf/wP+17AnsH7XAWz+ZC5GDr4PT32wCQ29dLdXHG25m/H8qGGYsuRHeEIsBCRM5MCK9nWgrrwEBae2Yu7DI/HHMbOx72guiq/VwxWOoL34e8wZPxQTF+5Ek78f/YFi/PjJTAwa+QwO5NF9ddTL+uAq3IIxg27HU+98hJ/O56Ogsg1dIT5UQcdxg+58LJw6DBPeXI9LroCp9LyOnEK09xrWzp6MMc8uxtEqD+JJPgNNzCRaJaRGJQWjEZ87AL53nw7VBD1d2P5dLXYebkZpaQ/WbW7CobPt8Db7cO54E85d9qLsqh9HdtQiZ3kZfrjciYhT6R3zMFZ6sjxiaDyzHU+OGY1H5yxDTbeheHLWwBAqUXolBEoxU4i4a/DDpi+wbuMmHDlxAnvWfYgHR43BtHc3oaGHfgLRjxspD6pOfokxd9+FF95bjmOXilBc7YIvQldo9yPYfBGrnnkQw59YijO1AaPD5imE2o1IJnywDqc3vIUR45/AtydKjWVb4p/hUOxtwq4P52L44AlYs/csAsrsZ3lgxc+guKRQN1MqDa4Lv/meAW5TzgxwM6+mrFm/aflteLPkzaaUgv9mcEmXLcyW/zc8uhheX2N0YQHTTBERQBl9NO+9UoRkCKT0U+69E8MfehwPThiHwfcMxYx5q5Hb4EVY/Sc+Bk/BQSyY+TRe++oMvBHesMGKFEVr+Tm89+wTmDhiCO7+85/wr7cNwn0jRuHR5+fheHUT3NXnsHTWU5j9+RG0BVNIBStwdst7eHTmezh5tUmtAUf7k4h2V2Lb0lcxethQDBn5AKbP/Vwt2ZGCRvr7EeqowGdznsaLK3ahrDOoTGO6t47oUOfp4x0o37cY4ybMwBcHLyKg5u/GRhpN6VnheZsq7UNQ6+A00tH8NBJB+WUXvl5Tho8+KcZ337ejuSeO3tY+HNpWhcXL87HgwwIsXlWKvac8cAdoyY4FXSkr8Zt4LaEq11h2S/lQuusj3PG7f8GoWctR64tYJxQlvQpZyUggGFcK0c5qHPjsXUydOAb33ncfhg4bixmvf4iTlS6EDPOZHHbB9iJszHkZo4fdh3tHTcYT89ai2kWWQL9asts0/xU8+8465DeHjC3KRDt3iLRnwt96GUuen45pr6/C5dY+tRwqnRD5GcLeEqyYOQm//d1QrNp7SXnv1bzesBrMekt9tLm+8EWZzxpclEzgttDgpcULi7+mGS6OOJ3vgp9CeQaA6/ht9AkeyqvlV951La5gWvxmcJOmgfDrdBvla3N63SlExDnjcnRPF0Y+JZZKhlCyewUeGjcJ8779HufPn8WZ85dxrbULIXXLLJ94i/a6UX+tHJXtfXyMUC447E8g5GtH8YUzOHnyBM6dO4ez53Nx8tQpnLtchNa+ACKhbjRUVaCy1ce/m6LLOty1KKtqgjdEe9V5mkA/oOx11aHgUi6On8zFucJqeAMCTyEZ6UVbdTkqWjrgk4sw1AEaPief6A/D33gSc6c9jDkfb0UNLUPRTj21/95QIIN51EhULgk0O6nosA053eLqksbm+j5crfahtYvPzCfCCXjbw6iu6sXVCh+q6oPoDJDXPB2vKQCqDG4P9q434OAnr+JPt4/F4j0X0aX+akIHhQz/gkYb4ZBRgGikDUq0L77gci5OnTqJsxeuoLLZo+7LZ7+GUR+6RKStBvkXcnH81DnkFtXCp261TSIZ8cFdX4lr9W70GFuNzTLUr6g60XR5G56Y8jiWbjkGj7q5lvhCMkBHRYPobfgJz00chnsffROn633s9Tdu/lE79Rx1YF4wn4UvTj+HlcZQrKw47HA7HvtRVinr54dWO9rx2ssUfGYnkZFWzarMAhc8EkrHKfFs+H/D110RsbIWbMxfVUF2M4uRyYjEFSEnWyoZROG2HIwfdj/mHy5GlH7FbNzbRk4uykcNTkTI3W6CSykMfb+exA269+16P27cuKHufVP3wd3gf4hxXroPji50YAGiMvh+OB5peYSgf+HR/XEMu37jBm/zlZFM0UB3yrFJKgyikMpQh0siHhQe+Q6rNuxFQaOHHX1q26zFDzVyGSa+wkEjhbGXnkc9/mU10cg7wRg/lXvjxnX1cF3oO/NSGolD4bMhSOq0Wz8SgQpsWvUeZr6+HBV0Bx+t72vmsdRDr5fwhUZZ+vcf8UT4o/4FaE5RiA7e2UZ0ShoKiSZFF10uYfBWzG2Vx9h7nwy7UXz0O3y2bgeKmr2IXk8pZywPInThRC/ayw7gpedm4dMdJ9CTNO4AVP/i44FG6s91YGU3yzctIlEKhlv1tvhm4bG3m3zn0Kiz1M+QA6mThM608l1Cgjvx2uNCp9GeZj2sOOESfJlCJ1zqLOUIvyROoTySl0JD6ck7K3NTUnoyvVkQFSKniaCZ92TG0P14ZYe/xIxHZmDFj+Q1J1OUnXOKAG0+zHFLyIUo9Z3yqR6fGSE9l6SRSrEQW/Qp4SMl1udUttHTqjydBpP8gldCHo3opFkECX87mts70alO2XF9JB2FzBcK2YEmOC3mWvQJ3WY+xVvaPyCCa/HD5Del0cw2Sks7E6/HPGivr8LVerfhB+BbWyyLQ6+fRYN0ukyLZbVJh6PodnQ+lFbagN6l/mrlwBBa+UahmqLEA+jzNKPF64OfRnmzDnxfPMlKtKceVytq0OIlnwCvWtj4Jnkk1Ms2+GIzn41vJn8ln4QDwP/TmvfK7FK7pQzhM5xXpoAYFzqQyUKPWpPVBIJMsqC3BdWVNWjspXmeoRTEbOMxmWs0gC2upZP0LARkITinGYw7s/lEMEvoLVwWHYI3c346Ekt38VEHSHholNLzWu+KD2oLstDHIaW3FIl/FyV06HzR60XvUg6FFGf8HAqt5GwU+vUyBD+FdF5f8lOHRJ2objKbiqHxXIcLHVKmjtt6T29fwst5eaqjOim15MidP+e18rGlxScRacOOkkGiXaNf6qHTYvGF9jFY/KF3rj/VN51/2eG8JJodzvgI7sSrx9PzW/RJOqLdop8HCz1+q3DCK4/k1fHRoJEJbjjy+OSU+vUz/f7ZYCA1ZCYhYWTSgEajJmnvN5+YI3OTHEKqoWU0M0KFT+uBpQwux8CpwQlHxjSa0LJAGelso72hpCY+6ySWLQ+N3CqNKDBdHGGckFPlMx6hQx+BiamCi8MsPDPNOWoILo8Ug+tt4bfjsjoZUXalHKZFxHDuTLhcftfzybtFV+YypT3tNFn0ENxKQ991PAzjNLwES3whoeROQHhj4lMWncU7sQxNeFr72stP5zvV005fOq50uB1POjwdh/AzU2jlt+PNlNbJv/Q0dv6mw29GW7b8hiMvilhvC9pry3Gtrhke5fgyCklTfEt4lICZS1fGv9LUHNOqPBMmcQqt/OmNZKTTlJSZZ89v5dO/E72MPxPcwsNprLjkM5TREDa+MYbS8rSH4izAUgbnS8ejww0eKpyZ6k1prTRWI8l3Ce008rq8lU9oM9f5TeG350/Hb+GweMZl2esl5Qs+ZyhwyWuN7sQz6gSknoqHmsJbOxCtPHZaCKfgFzyUljoMietpJK0eyrukt0LGkx0udNvLsvLb4dZ3O33yncqxHqs9rG9WXfVOwZlfj9O7Hpe6SP50+G+U4iYjaLzyAxa+NA33j5+ERev2ozHIvTSPasamCk14aZRSjWkoAxGrfpBobMRQeBUxUqgVcmWtuFVR+paJWD3t/+m7MEPyO+O60HHd+MYYtljkVp30eqXj4UbguljvovRSvjN01luHSxl8safQIrjjdGsN8Vr5GvR89veB+U5ppRznux2PlGuFduevxSOLj+a0QY381ghPMkQ3JlMeK5+Up9Mj3yR0wpxxSXez0JnPGdfzDwTT09H7QGkZZrVH5rQW3Ilb4s589ni2/KbS97VVIPfwt3j9kTEYNO5Z7Cxz8R9bZK5kjr52BxNXjucO8s7mPxGQ6RFTOhPM+KaVZfXEkl4YKnFnmBlu4WG4FXfm57jMcyWUurBgWnnS8WQunxSEG8HKKzglHBhu51tGusTBmIXvN8Wv5ctcr2x1s1tJUh8KaY6px613/i71sJQ+G3+obKv8dPoonwW3ytHxpcPteNLhmfHoOPV3K78dr57Geh+4PWQQsNLfGi3Z8yvznjz16jaVeBBlWxZg6JCpWPr9NUSM5TZ7YXRnvUGIKCeN9vr11QIXIaJ0kpYaRuDyzQZP2OCKeTa4JvwZ82eGW/Qx3MRLNN4CftVQWrkmHuObE27xjvwJhlBo+S04/5pJxTPCtU4jG3xA/Dcr3843s17Shnqnla186XQETtaf6fMYmH7im6kEkl9Cza8j/EmjT/ePSD4JjTbOhN+kb6D8hEcekRdn6Mhvo0+nQ8uXJg8EuwW4SdNA+HW6Dfy/4Z6WTPkUYtE+VG55F+NHPIqcQ6T05MkmQmhZyDD3lRlpJ44Kt5TKrrRmJUzC/t9W+oxKqzHOCTcb16ifE67qr5h9M6X7GUr/C5U6TcjMNqH2/L+g9GrqxyM68UXxRhNqJbSGIN4q3OS7kZ9wDYQ/G/w/pdLzbjBaXkgiEfOjcsdCTBg+CQv3lqprnNRfPtSBFM1MswkLdwAm8/RGlQaxhZpw2b4bHYkjvw2vSm+ZUJZCaXmzmHgWHs5vxfW89H5r+NPxZMuvCX2WeptCmxF+s/y/HK7zM3O9stVN+JYOt/AQLB1ulXlrcAuv3n4D4Rca9fS6JZIZbtFnz5f5u1V+ZvrsOAZub60TyygPdlyZ6MmGn817wxkXSwTRemYNpo8ZgWnvfYPSJi96gqTs1kYSQUSh/khPqr5pp/D0NAyjTTT2vOlpLLgNL5WpLcml5RsAbuIx8ptxRz1uFX8anmz00YWe2WAGDQPCb5b/rwDX+ZmxXgPRT7AMcBNPFrhZ5i3CTbx6+2Uo38SfRTZseG6WXy8r07uW34Y3U1raHamlt9FppL8ZPFMe/Vu2/IbScw+VSEUQ7byIL+Y+ht///k8Y9fQi7Dhbq37WqNbezfVs6WU05dTmXVQw9eo6AeZ7horqafV3xsM93kD5TRgxKwN+Gx4DTj2jLZ80jHY5Yja4/j0Nj1a+rS70XYPpOOhdpc0CN2EG3IZXo3sg/ArmwG/D46h3xno58ksdBqLPxEN5HWVIfhUacP2bkz69fiZeo/4mDcKPTGEG+m14BqJP2igTXvmm4bfhFbgRmvUy0ptxRzq9vjpf5N2ZzxnPlt+4GJOUmE6IhdFTsQ9zHxuPoQ++iC92nURJU7f6rRQVRBWRylghKzfP6UV4Oa3kUaGaElBaHumt/IYZY8AV4cbclfKRmZSW36AlK/4McKGPr57W8MoSodBnNoRlXtnKd8DT6HPALZ7JxZUOvKbpxj1/Gl9Mng+cn+pFPfsvya/z06yXVj4rbWb6uV3TyxczVwngQPQR324BnkrgFA4AAAJjSURBVE4fd/jZ658ZbtJHCpetfMNfoPNHL8cc1bX8On2Sj/Lo+ZztdatwwiuP5HXizwQ3Nuew0ifiQdTsy8HE+8Zg3qaL8NN/221OPG1ebworV0SYpwrXHDg6Mfz+65w+nSd2YXDCmbfcwE6YFf/lcAuXc65L9HGHrqeRd6GP03Bd7DArv01ObDKUHT/jssMz4+HBRspOD9Phdjw8GKTns9cpO9zCb8ebOb+zM3DivRncmd5ZZrb8pnmv9nLH/KjY8i4mjHoEOYcr1Dl4QWxbn/7VkWdaPU5GZxJ85uHNlNIaQYXn9vBm+X85XC8vc70sodbT8jvB0uEWnsxwC8+twS28ukKll2/hl45HT+/s3G6W357XjtuOPzN99vzZlFLw3gwu6bKF2fKbSk9E0pLdtS3vYtTQqcg5fA1RbZ3eUnpduKShpIfkuFWYMNEKxbxmQq3vVtyOn5lnpaP8lnBZ3yV/NrjgEbjEJZ+EApe4M3TCnXiccM5PCm2Zr+n0s8CIeZkJfrP8fw24Xq69Xgb9ive6cAv/s8MZT3a4jT+3gN9JH9HOvM9MXza40JcNLvQxb6S+ztBoP41+O32SntJZ9KW3963BLZoGwk8wO1zN6dXBiLAbXU3F2Pr+C7h92GNYm1unrrjSd0qZiv/rSP/rSG8zzUWQ7cJFAq4rlVP4LIXKnt9KYxdeC68oiuDQ4873gej7Ofmd+JxxC39m+uzprcHR/l3qfDO4pMsWZsv/G/Vr4mQUjQVHkPPyo7jvz3/ElJeX4rIroG50MZXeWNZTBfyq9L8q/a9Kb8qApXT/fyj9/wYC5XDqjFyFygAAAABJRU5ErkJggg==;imageBorder=#000000;" vertex="1" parent="1">
          <mxGeometry x="80" y="190" width="253" height="100" as="geometry" />
        </mxCell>
        <mxCell id="XVJSLa_-UN0Uxd0v42_F-15" style="edgeStyle=orthogonalEdgeStyle;shape=flexArrow;rounded=0;orthogonalLoop=1;jettySize=auto;html=1;entryX=0;entryY=0.75;entryDx=0;entryDy=0;entryPerimeter=0;fillColor=#e1d5e7;strokeColor=#9673a6;" edge="1" parent="1" source="XVJSLa_-UN0Uxd0v42_F-2" target="XVJSLa_-UN0Uxd0v42_F-9">
          <mxGeometry relative="1" as="geometry" />
        </mxCell>
        <mxCell id="XVJSLa_-UN0Uxd0v42_F-2" value="&lt;font style=&quot;font-size: 14px&quot;&gt;Executable&lt;br&gt;(a.out)&lt;/font&gt;" style="rounded=0;whiteSpace=wrap;html=1;fillColor=#f8cecc;strokeColor=#b85450;" vertex="1" parent="1">
          <mxGeometry x="80" y="370" width="100" height="60" as="geometry" />
        </mxCell>
        <mxCell id="XVJSLa_-UN0Uxd0v42_F-6" value="" style="shape=table;html=1;whiteSpace=wrap;startSize=0;container=1;collapsible=0;childLayout=tableLayout;fillColor=#dae8fc;strokeColor=#6c8ebf;" vertex="1" parent="1">
          <mxGeometry x="230" y="330" width="80" height="160" as="geometry" />
        </mxCell>
        <mxCell id="XVJSLa_-UN0Uxd0v42_F-7" value="" style="shape=partialRectangle;html=1;whiteSpace=wrap;collapsible=0;dropTarget=0;pointerEvents=0;fillColor=none;top=0;left=0;bottom=0;right=0;points=[[0,0.5],[1,0.5]];portConstraint=eastwest;" vertex="1" parent="XVJSLa_-UN0Uxd0v42_F-6">
          <mxGeometry width="80" height="40" as="geometry" />
        </mxCell>
        <mxCell id="XVJSLa_-UN0Uxd0v42_F-8" value="Stack" style="shape=partialRectangle;html=1;whiteSpace=wrap;connectable=0;overflow=hidden;fillColor=none;top=0;left=0;bottom=0;right=0;" vertex="1" parent="XVJSLa_-UN0Uxd0v42_F-7">
          <mxGeometry width="80" height="40" as="geometry" />
        </mxCell>
        <mxCell id="XVJSLa_-UN0Uxd0v42_F-9" value="" style="shape=partialRectangle;html=1;whiteSpace=wrap;collapsible=0;dropTarget=0;pointerEvents=0;fillColor=none;top=0;left=0;bottom=0;right=0;points=[[0,0.5],[1,0.5]];portConstraint=eastwest;" vertex="1" parent="XVJSLa_-UN0Uxd0v42_F-6">
          <mxGeometry y="40" width="80" height="40" as="geometry" />
        </mxCell>
        <mxCell id="XVJSLa_-UN0Uxd0v42_F-10" value="Heap" style="shape=partialRectangle;html=1;whiteSpace=wrap;connectable=0;overflow=hidden;fillColor=none;top=0;left=0;bottom=0;right=0;" vertex="1" parent="XVJSLa_-UN0Uxd0v42_F-9">
          <mxGeometry width="80" height="40" as="geometry" />
        </mxCell>
        <mxCell id="XVJSLa_-UN0Uxd0v42_F-11" value="" style="shape=partialRectangle;html=1;whiteSpace=wrap;collapsible=0;dropTarget=0;pointerEvents=0;fillColor=none;top=0;left=0;bottom=0;right=0;points=[[0,0.5],[1,0.5]];portConstraint=eastwest;" vertex="1" parent="XVJSLa_-UN0Uxd0v42_F-6">
          <mxGeometry y="80" width="80" height="40" as="geometry" />
        </mxCell>
        <mxCell id="XVJSLa_-UN0Uxd0v42_F-12" value="Data&lt;br&gt;(Global Static)" style="shape=partialRectangle;html=1;whiteSpace=wrap;connectable=0;overflow=hidden;fillColor=none;top=0;left=0;bottom=0;right=0;" vertex="1" parent="XVJSLa_-UN0Uxd0v42_F-11">
          <mxGeometry width="80" height="40" as="geometry" />
        </mxCell>
        <mxCell id="XVJSLa_-UN0Uxd0v42_F-13" value="" style="shape=partialRectangle;html=1;whiteSpace=wrap;collapsible=0;dropTarget=0;pointerEvents=0;fillColor=none;top=0;left=0;bottom=0;right=0;points=[[0,0.5],[1,0.5]];portConstraint=eastwest;" vertex="1" parent="XVJSLa_-UN0Uxd0v42_F-6">
          <mxGeometry y="120" width="80" height="40" as="geometry" />
        </mxCell>
        <mxCell id="XVJSLa_-UN0Uxd0v42_F-14" value="Text&lt;br&gt;{Instructions}" style="shape=partialRectangle;html=1;whiteSpace=wrap;connectable=0;overflow=hidden;fillColor=none;top=0;left=0;bottom=0;right=0;" vertex="1" parent="XVJSLa_-UN0Uxd0v42_F-13">
          <mxGeometry width="80" height="40" as="geometry" />
        </mxCell>
        <mxCell id="2" value="&lt;font style=&quot;font-size: 14px&quot;&gt;$./a.out&lt;/font&gt;" style="text;html=1;align=center;verticalAlign=middle;resizable=0;points=[];autosize=1;" vertex="1" parent="1">
          <mxGeometry x="170" y="350" width="60" height="20" as="geometry" />
        </mxCell>
        <mxCell id="XVJSLa_-UN0Uxd0v42_F-16" value="&lt;font style=&quot;font-size: 14px&quot;&gt;$gcc hello.c&lt;/font&gt;" style="text;html=1;align=center;verticalAlign=middle;resizable=0;points=[];autosize=1;" vertex="1" parent="1">
          <mxGeometry x="135" y="300" width="90" height="20" as="geometry" />
        </mxCell>
        <mxCell id="XVJSLa_-UN0Uxd0v42_F-17" value="&lt;font style=&quot;font-size: 14px&quot;&gt;Process&lt;/font&gt;" style="text;html=1;align=center;verticalAlign=middle;resizable=0;points=[];autosize=1;" vertex="1" parent="1">
          <mxGeometry x="235" y="300" width="70" height="20" as="geometry" />
        </mxCell>
        <mxCell id="XVJSLa_-UN0Uxd0v42_F-18" value="&lt;font style=&quot;font-size: 15px&quot;&gt;Virtual Adress&lt;br&gt;map of process&lt;/font&gt;" style="text;html=1;align=center;verticalAlign=middle;resizable=0;points=[];autosize=1;rotation=270;" vertex="1" parent="1">
          <mxGeometry x="280" y="390" width="120" height="40" as="geometry" />
        </mxCell>
        <mxCell id="XVJSLa_-UN0Uxd0v42_F-19" value="&lt;font style=&quot;font-size: 14px&quot;&gt;MAX_SIZE&lt;/font&gt;" style="text;html=1;align=center;verticalAlign=middle;resizable=0;points=[];autosize=1;" vertex="1" parent="1">
          <mxGeometry x="320" y="320" width="80" height="20" as="geometry" />
        </mxCell>
      </root>
    </mxGraphModel>
  </diagram>
</mxfile>
